<svg xmlns="http://www.w3.org/2000/svg" width="414.9" height="63.2" viewBox="0 0 414.9 63.2">
  <path id="accessories" d="M-19.6,1.4A32.194,32.194,0,0,1-25.9.79a43.8,43.8,0,0,1-6.576-1.922A.5.5,0,0,1-32.8-1.6v-10a.5.5,0,0,1,.233-.423.5.5,0,0,1,.481-.029C-27.11-9.7-22.842-8.5-19.4-8.5a7.62,7.62,0,0,0,4.364-1.06A3.139,3.139,0,0,0-13.6-12.3a4.271,4.271,0,0,0-.221-1.432,1.893,1.893,0,0,0-.844-.944,13.363,13.363,0,0,0-2.118-1.009,33.5,33.5,0,0,0-3.643-1.132h-.005c-4.466-1.218-7.755-2.877-9.775-4.932A11.31,11.31,0,0,1-33.3-30a13.558,13.558,0,0,1,1.2-5.709,13.3,13.3,0,0,1,3.324-4.467,15.282,15.282,0,0,1,5.064-2.9A19.346,19.346,0,0,1-17.3-44.1a30.542,30.542,0,0,1,5.389.458,46.945,46.945,0,0,1,5.965,1.566A.5.5,0,0,1-5.6-41.6v9.8a.5.5,0,0,1-.254.435.5.5,0,0,1-.5-.006,21.61,21.61,0,0,0-5.18-2.248A19.223,19.223,0,0,0-16.8-34.4a7.842,7.842,0,0,0-4.467,1.112A3.292,3.292,0,0,0-22.8-30.4a2.483,2.483,0,0,0,1.791,2.338c.326.131.624.246.885.344s.591.213.983.344.953.3,1.673.492,1.778.5,3.106.9A27.347,27.347,0,0,1-9.776-24.3a11.217,11.217,0,0,1,2.925,2.039,11.745,11.745,0,0,1,2.762,4.014A12.894,12.894,0,0,1-3.1-13.2,14.4,14.4,0,0,1-4.294-7.244a13.9,13.9,0,0,1-3.37,4.615,14.79,14.79,0,0,1-5.225,3A20.9,20.9,0,0,1-19.6,1.4ZM-31.8-1.949A42.2,42.2,0,0,0-25.7-.19,31.185,31.185,0,0,0-19.6.4a19.906,19.906,0,0,0,6.389-.974,13.8,13.8,0,0,0,4.875-2.8,12.9,12.9,0,0,0,3.13-4.285A13.407,13.407,0,0,0-4.1-13.2a11.9,11.9,0,0,0-.911-4.656,10.75,10.75,0,0,0-2.532-3.68l-.011-.011a10.217,10.217,0,0,0-2.67-1.856,26.375,26.375,0,0,0-4.414-1.616l-.006,0c-1.323-.4-2.362-.7-3.088-.9s-1.319-.372-1.727-.508-.746-.254-1.017-.356-.575-.22-.91-.354l-.011,0a3.434,3.434,0,0,1-2.4-3.26,4.282,4.282,0,0,1,1.967-3.712A8.8,8.8,0,0,1-16.8-35.4a20.221,20.221,0,0,1,5.537.819A22.606,22.606,0,0,1-6.6-32.663v-8.572a44.791,44.791,0,0,0-5.489-1.423A29.538,29.538,0,0,0-17.3-43.1a18.352,18.352,0,0,0-6.084.972,14.288,14.288,0,0,0-4.736,2.7A12.306,12.306,0,0,0-31.2-35.291,12.566,12.566,0,0,0-32.3-30a10.346,10.346,0,0,0,2.807,7.549c1.894,1.927,5.031,3.5,9.323,4.668a34.417,34.417,0,0,1,3.753,1.167,14.319,14.319,0,0,1,2.282,1.091,2.883,2.883,0,0,1,1.256,1.456A5.259,5.259,0,0,1-12.6-12.3a4.129,4.129,0,0,1-1.864,3.56A8.567,8.567,0,0,1-19.4-7.5c-3.423,0-7.592-1.115-12.4-3.316ZM-200.3,1.4a32.194,32.194,0,0,1-6.3-.61,43.8,43.8,0,0,1-6.576-1.922A.5.5,0,0,1-213.5-1.6v-10a.5.5,0,0,1,.233-.423.5.5,0,0,1,.481-.029C-207.81-9.7-203.542-8.5-200.1-8.5a7.62,7.62,0,0,0,4.364-1.06A3.139,3.139,0,0,0-194.3-12.3a4.27,4.27,0,0,0-.221-1.432,1.893,1.893,0,0,0-.844-.944,13.365,13.365,0,0,0-2.118-1.009,33.492,33.492,0,0,0-3.643-1.132h-.005c-4.466-1.218-7.755-2.877-9.775-4.932A11.31,11.31,0,0,1-214-30a13.558,13.558,0,0,1,1.2-5.709,13.3,13.3,0,0,1,3.324-4.467,15.281,15.281,0,0,1,5.064-2.9A19.346,19.346,0,0,1-198-44.1a30.542,30.542,0,0,1,5.389.458,46.946,46.946,0,0,1,5.965,1.566.5.5,0,0,1,.346.476v9.8a.5.5,0,0,1-.254.435.5.5,0,0,1-.5-.006,21.614,21.614,0,0,0-5.18-2.248A19.226,19.226,0,0,0-197.5-34.4a7.842,7.842,0,0,0-4.467,1.112A3.291,3.291,0,0,0-203.5-30.4a2.483,2.483,0,0,0,1.791,2.338c.327.131.625.247.885.344s.59.213.983.344.953.3,1.673.492,1.778.5,3.106.9a27.347,27.347,0,0,1,4.586,1.684,11.218,11.218,0,0,1,2.924,2.038,11.746,11.746,0,0,1,2.763,4.015A12.894,12.894,0,0,1-183.8-13.2a14.4,14.4,0,0,1-1.194,5.956,13.9,13.9,0,0,1-3.37,4.615,14.79,14.79,0,0,1-5.225,3A20.9,20.9,0,0,1-200.3,1.4Zm-12.2-3.349A42.2,42.2,0,0,0-206.4-.19a31.185,31.185,0,0,0,6.1.59,19.906,19.906,0,0,0,6.389-.974,13.8,13.8,0,0,0,4.875-2.8,12.9,12.9,0,0,0,3.13-4.285A13.407,13.407,0,0,0-184.8-13.2a11.9,11.9,0,0,0-.911-4.656,10.751,10.751,0,0,0-2.532-3.68l-.011-.011a10.22,10.22,0,0,0-2.67-1.856,26.375,26.375,0,0,0-4.414-1.616l-.006,0c-1.323-.4-2.362-.7-3.088-.9s-1.319-.372-1.727-.508-.746-.254-1.017-.356-.574-.22-.91-.354l-.011,0a3.434,3.434,0,0,1-2.4-3.26,4.282,4.282,0,0,1,1.967-3.712A8.8,8.8,0,0,1-197.5-35.4a20.224,20.224,0,0,1,5.537.819,22.61,22.61,0,0,1,4.663,1.917v-8.572a44.791,44.791,0,0,0-5.489-1.423A29.538,29.538,0,0,0-198-43.1a18.352,18.352,0,0,0-6.084.972,14.288,14.288,0,0,0-4.736,2.7,12.306,12.306,0,0,0-3.076,4.133A12.566,12.566,0,0,0-213-30a10.346,10.346,0,0,0,2.807,7.549c1.894,1.927,5.031,3.5,9.323,4.668a34.432,34.432,0,0,1,3.753,1.167,14.318,14.318,0,0,1,2.282,1.091,2.883,2.883,0,0,1,1.256,1.456A5.259,5.259,0,0,1-193.3-12.3a4.129,4.129,0,0,1-1.864,3.56A8.567,8.567,0,0,1-200.1-7.5c-3.423,0-7.592-1.115-12.4-3.316ZM-236.4,1.4a32.194,32.194,0,0,1-6.3-.61,43.8,43.8,0,0,1-6.576-1.922A.5.5,0,0,1-249.6-1.6v-10a.5.5,0,0,1,.233-.423.5.5,0,0,1,.481-.029C-243.91-9.7-239.642-8.5-236.2-8.5a7.62,7.62,0,0,0,4.364-1.06A3.139,3.139,0,0,0-230.4-12.3a4.271,4.271,0,0,0-.221-1.432,1.893,1.893,0,0,0-.844-.944,13.365,13.365,0,0,0-2.118-1.009,33.492,33.492,0,0,0-3.643-1.132h-.005c-4.466-1.218-7.755-2.877-9.775-4.932A11.31,11.31,0,0,1-250.1-30a13.558,13.558,0,0,1,1.2-5.709,13.3,13.3,0,0,1,3.324-4.467,15.281,15.281,0,0,1,5.064-2.9A19.346,19.346,0,0,1-234.1-44.1a30.542,30.542,0,0,1,5.389.458,46.956,46.956,0,0,1,5.965,1.566.5.5,0,0,1,.346.476v9.8a.5.5,0,0,1-.254.435.5.5,0,0,1-.5-.006,21.614,21.614,0,0,0-5.18-2.248A19.226,19.226,0,0,0-233.6-34.4a7.842,7.842,0,0,0-4.467,1.112A3.291,3.291,0,0,0-239.6-30.4a2.483,2.483,0,0,0,1.791,2.338c.327.131.625.247.885.344s.591.213.983.344.953.3,1.674.492,1.779.5,3.11.9a27.336,27.336,0,0,1,4.583,1.682,11.218,11.218,0,0,1,2.924,2.038,11.746,11.746,0,0,1,2.763,4.015A12.894,12.894,0,0,1-219.9-13.2a14.4,14.4,0,0,1-1.194,5.956,13.9,13.9,0,0,1-3.37,4.615,14.791,14.791,0,0,1-5.225,3A20.9,20.9,0,0,1-236.4,1.4Zm-12.2-3.349A42.2,42.2,0,0,0-242.5-.19a31.185,31.185,0,0,0,6.1.59,19.906,19.906,0,0,0,6.389-.974,13.8,13.8,0,0,0,4.875-2.8,12.9,12.9,0,0,0,3.13-4.285A13.407,13.407,0,0,0-220.9-13.2a11.9,11.9,0,0,0-.911-4.656,10.751,10.751,0,0,0-2.532-3.68l-.011-.011a10.219,10.219,0,0,0-2.67-1.856,26.383,26.383,0,0,0-4.414-1.616l-.006,0c-1.323-.4-2.362-.7-3.088-.9s-1.319-.372-1.727-.508-.746-.254-1.017-.356-.574-.22-.91-.354l-.011,0a3.434,3.434,0,0,1-2.4-3.26,4.282,4.282,0,0,1,1.967-3.712A8.8,8.8,0,0,1-233.6-35.4a20.224,20.224,0,0,1,5.537.819,22.61,22.61,0,0,1,4.663,1.917v-8.572a44.784,44.784,0,0,0-5.489-1.423A29.538,29.538,0,0,0-234.1-43.1a18.352,18.352,0,0,0-6.084.972,14.288,14.288,0,0,0-4.736,2.7A12.3,12.3,0,0,0-248-35.291,12.566,12.566,0,0,0-249.1-30a10.346,10.346,0,0,0,2.807,7.549c1.894,1.927,5.031,3.5,9.323,4.668a34.43,34.43,0,0,1,3.753,1.167,14.319,14.319,0,0,1,2.282,1.091,2.883,2.883,0,0,1,1.256,1.456A5.26,5.26,0,0,1-229.4-12.3a4.129,4.129,0,0,1-1.864,3.56A8.567,8.567,0,0,1-236.2-7.5c-3.423,0-7.592-1.115-12.4-3.316ZM-59.8,1.1A21.217,21.217,0,0,1-68.453-.693a23.4,23.4,0,0,1-7.1-4.854A23.223,23.223,0,0,1-80.408-12.7,21.567,21.567,0,0,1-82.2-21.4a22.1,22.1,0,0,1,1.74-8.7,22.52,22.52,0,0,1,4.807-7.158,22.674,22.674,0,0,1,7.106-4.806A21.74,21.74,0,0,1-59.9-43.8,22.061,22.061,0,0,1-51-42.008a23.188,23.188,0,0,1,7.359,5.16l.008.009a22.6,22.6,0,0,1,3.937,5.88A14.64,14.64,0,0,1-38.2-24.9a7.728,7.728,0,0,1-2.991,6.393,7.4,7.4,0,0,1-3.111,1.5,29.749,29.749,0,0,1-5.2.31H-70.563a11.831,11.831,0,0,0,4.053,5.092A11.686,11.686,0,0,0-59.6-9.5a11.69,11.69,0,0,0,9.412-4.615A.5.5,0,0,1-49.8-14.3h10.4a.5.5,0,0,1,.41.213.5.5,0,0,1,.06.458A23.268,23.268,0,0,1-42.2-7.549a20.659,20.659,0,0,1-4.816,4.611A23.75,23.75,0,0,1-53.044.025,21.63,21.63,0,0,1-59.8,1.1Zm-.1-43.9a20.746,20.746,0,0,0-8.252,1.659,21.678,21.678,0,0,0-6.794,4.594A21.523,21.523,0,0,0-79.54-29.7a21.107,21.107,0,0,0-1.66,8.3,20.574,20.574,0,0,0,1.708,8.3,22.226,22.226,0,0,0,4.646,6.847,22.4,22.4,0,0,0,6.8,4.646A20.223,20.223,0,0,0-59.8.1,20.634,20.634,0,0,0-53.356-.925a22.752,22.752,0,0,0,5.773-2.837A19.659,19.659,0,0,0-43-8.151,22.065,22.065,0,0,0-40.125-13.3h-9.439A12.608,12.608,0,0,1-59.6-8.5a12.666,12.666,0,0,1-7.489-2.292,12.955,12.955,0,0,1-4.68-6.235.5.5,0,0,1,.059-.459.5.5,0,0,1,.41-.214h21.8a29.4,29.4,0,0,0,5-.29,6.411,6.411,0,0,0,2.689-1.3A6.688,6.688,0,0,0-39.2-24.9a13.659,13.659,0,0,0-1.4-5.641,21.6,21.6,0,0,0-3.76-5.617A22.191,22.191,0,0,0-51.4-41.092,21.069,21.069,0,0,0-59.9-42.8ZM-156.15,1.1a22.19,22.19,0,0,1-8.715-1.74,22.576,22.576,0,0,1-7.174-4.806,23.392,23.392,0,0,1-4.865-7.1,21.177,21.177,0,0,1-1.8-8.653,22.127,22.127,0,0,1,1.8-8.849,23.054,23.054,0,0,1,4.867-7.205,22.432,22.432,0,0,1,7.226-4.807A22.81,22.81,0,0,1-155.95-43.8a22.257,22.257,0,0,1,8.868,1.791,22.7,22.7,0,0,1,7.224,4.908,22.813,22.813,0,0,1,4.817,7.309A23.3,23.3,0,0,1-133.3-20.8a20.592,20.592,0,0,1-1.8,8.505,21.937,21.937,0,0,1-4.923,6.958,23.932,23.932,0,0,1-7.267,4.7A22.812,22.812,0,0,1-156.15,1.1Zm.2-43.9a21.817,21.817,0,0,0-8.476,1.661,21.437,21.437,0,0,0-6.906,4.593,22.058,22.058,0,0,0-4.655,6.895A21.133,21.133,0,0,0-177.7-21.2a20.184,20.184,0,0,0,1.711,8.247,22.394,22.394,0,0,0,4.657,6.8,21.581,21.581,0,0,0,6.858,4.594A21.2,21.2,0,0,0-156.15.1a21.817,21.817,0,0,0,8.476-1.661,22.935,22.935,0,0,0,6.965-4.5,20.942,20.942,0,0,0,4.7-6.642A19.6,19.6,0,0,0-134.3-20.8a22.307,22.307,0,0,0-1.666-8.608,21.816,21.816,0,0,0-4.605-6.991,21.7,21.7,0,0,0-6.908-4.692A21.262,21.262,0,0,0-155.95-42.8ZM-276.6,1.1a21.217,21.217,0,0,1-8.653-1.793,23.4,23.4,0,0,1-7.1-4.854,23.223,23.223,0,0,1-4.855-7.153A21.568,21.568,0,0,1-299-21.4a22.1,22.1,0,0,1,1.74-8.7,22.521,22.521,0,0,1,4.807-7.158,22.675,22.675,0,0,1,7.106-4.806A21.741,21.741,0,0,1-276.7-43.8a22.061,22.061,0,0,1,8.9,1.792,23.188,23.188,0,0,1,7.358,5.16l.008.009a22.593,22.593,0,0,1,3.937,5.88A14.641,14.641,0,0,1-255-24.9a7.728,7.728,0,0,1-2.991,6.393,7.4,7.4,0,0,1-3.111,1.5,29.749,29.749,0,0,1-5.2.31h-21.063a11.831,11.831,0,0,0,4.053,5.092A11.686,11.686,0,0,0-276.4-9.5a11.69,11.69,0,0,0,9.412-4.615.5.5,0,0,1,.388-.185h10.4a.5.5,0,0,1,.41.213.5.5,0,0,1,.06.458A23.27,23.27,0,0,1-259-7.549a20.661,20.661,0,0,1-4.816,4.611A23.751,23.751,0,0,1-269.844.025,21.63,21.63,0,0,1-276.6,1.1Zm-.1-43.9a20.747,20.747,0,0,0-8.252,1.659,21.678,21.678,0,0,0-6.794,4.594A21.524,21.524,0,0,0-296.34-29.7,21.106,21.106,0,0,0-298-21.4a20.574,20.574,0,0,0,1.708,8.3,22.225,22.225,0,0,0,4.646,6.847,22.4,22.4,0,0,0,6.8,4.646A20.223,20.223,0,0,0-276.6.1a20.634,20.634,0,0,0,6.444-1.025,22.752,22.752,0,0,0,5.773-2.837A19.66,19.66,0,0,0-259.8-8.151a22.067,22.067,0,0,0,2.874-5.149h-9.439A12.608,12.608,0,0,1-276.4-8.5a12.666,12.666,0,0,1-7.489-2.292,12.955,12.955,0,0,1-4.68-6.235.5.5,0,0,1,.059-.459.5.5,0,0,1,.41-.214h21.8a29.4,29.4,0,0,0,5-.29,6.41,6.41,0,0,0,2.689-1.3A6.688,6.688,0,0,0-256-24.9a13.66,13.66,0,0,0-1.4-5.641,21.593,21.593,0,0,0-3.759-5.615,22.191,22.191,0,0,0-7.037-4.936A21.069,21.069,0,0,0-276.7-42.8ZM-396,1.1a20.63,20.63,0,0,1-8.5-1.794,22.332,22.332,0,0,1-6.955-4.859,24.35,24.35,0,0,1-4.748-7.095A21.217,21.217,0,0,1-418-21.3a21.527,21.527,0,0,1,1.8-8.7,23.216,23.216,0,0,1,4.866-7.153,23.115,23.115,0,0,1,7.222-4.855A22.012,22.012,0,0,1-395.35-43.8a22.516,22.516,0,0,1,10.71,2.709,21.469,21.469,0,0,1,8.052,7.32l0,.006A24.183,24.183,0,0,1-374.9-30.6a18.549,18.549,0,0,1,1.083,3.443,29.115,29.115,0,0,1,.562,4.274c.1,1.57.151,3.448.151,5.582V0a.5.5,0,0,1-.5.5h-9.9A.5.5,0,0,1-384,0V-2.913A20.558,20.558,0,0,1-396,1.1Zm.65-43.9a21.018,21.018,0,0,0-8.371,1.709,22.12,22.12,0,0,0-6.911,4.645,22.222,22.222,0,0,0-4.656,6.847A20.534,20.534,0,0,0-417-21.3a20.222,20.222,0,0,0,1.707,8.247,23.351,23.351,0,0,0,4.552,6.805A21.336,21.336,0,0,0-404.1-1.606,19.637,19.637,0,0,0-396,.1a19.879,19.879,0,0,0,12.2-4.4.5.5,0,0,1,.525-.051A.5.5,0,0,1-383-3.9V-.5h8.9V-17.3c0-2.113-.05-3.969-.149-5.518a28.116,28.116,0,0,0-.541-4.126,17.552,17.552,0,0,0-1.023-3.257,23.185,23.185,0,0,0-1.617-3.031,20.481,20.481,0,0,0-7.681-6.977A21.526,21.526,0,0,0-395.35-42.8ZM-89.9.5h-9.9a.5.5,0,0,1-.5-.5V-42.7a.5.5,0,0,1,.5-.5h9.9a.5.5,0,0,1,.5.5V0A.5.5,0,0,1-89.9.5Zm-9.4-1h8.9V-42.2h-8.9Zm-17.1,1h-9.9a.5.5,0,0,1-.5-.5V-25.1a25.489,25.489,0,0,1,1.124-7.906,15.21,15.21,0,0,1,3.409-5.84,14.426,14.426,0,0,1,5.513-3.574A21.325,21.325,0,0,1-109.4-43.6h1a12.018,12.018,0,0,1,1.462.1.5.5,0,0,1,.438.5v9.5a.5.5,0,0,1-.464.5,18.769,18.769,0,0,0-4.478.776,5.7,5.7,0,0,0-2.625,1.7,7.084,7.084,0,0,0-1.4,3.038,23.5,23.5,0,0,0-.438,4.99V0A.5.5,0,0,1-116.4.5Zm-9.4-1h8.9v-22a24.461,24.461,0,0,1,.462-5.21,8.063,8.063,0,0,1,1.6-3.462,6.682,6.682,0,0,1,3.075-2,18.85,18.85,0,0,1,4.258-.788v-8.59c-.333-.032-.634-.048-.9-.048h-1c-5.24,0-9.326,1.5-12.144,4.445S-125.8-30.806-125.8-25.1ZM-303,.5h-4.8c-2.2,0-4.119-.068-5.692-.2a28.5,28.5,0,0,1-4.276-.662,14.4,14.4,0,0,1-3.522-1.347A28.079,28.079,0,0,1-324.512-3.8l-.007-.006a22.552,22.552,0,0,1-6.455-7.67A21.139,21.139,0,0,1-333.2-21.1a22.256,22.256,0,0,1,3.565-12.271,20.45,20.45,0,0,1,9.535-7.987,18.625,18.625,0,0,1,2.56-.972,19.111,19.111,0,0,1,2.722-.565,30.7,30.7,0,0,1,3.3-.254c1.2-.033,2.718-.05,4.514-.05h4a.5.5,0,0,1,.5.5v9.472a.5.5,0,0,1-.5.5c-1.655,0-3.081.016-4.236.049s-2.18.066-3.045.1a20.751,20.751,0,0,0-2.245.195,10.953,10.953,0,0,0-1.817.429l-.015,0a10.95,10.95,0,0,0-5.743,3.96,10.9,10.9,0,0,0-2.2,6.728,10.863,10.863,0,0,0,1.627,5.721,9.675,9.675,0,0,0,4.377,3.891l.019.009a18.944,18.944,0,0,0,1.9.826,9.254,9.254,0,0,0,1.945.472c.713.1,1.571.162,2.549.195s2.23.05,3.683.05h3.2a.5.5,0,0,1,.5.5V0A.5.5,0,0,1-303,.5Zm-20.912-5.1a27.06,27.06,0,0,0,3.1,2.01,13.4,13.4,0,0,0,3.278,1.253,27.509,27.509,0,0,0,4.124.638c1.546.132,3.432.2,5.608.2h4.3V-9.1h-2.7c-1.465,0-2.715-.017-3.717-.05s-1.9-.1-2.651-.2a10.258,10.258,0,0,1-2.155-.525,19.914,19.914,0,0,1-1.991-.865,10.656,10.656,0,0,1-4.813-4.28,11.848,11.848,0,0,1-1.773-6.241,11.874,11.874,0,0,1,2.4-7.331,11.929,11.929,0,0,1,6.249-4.313,11.954,11.954,0,0,1,1.976-.466,21.734,21.734,0,0,1,2.355-.205c.868-.033,1.9-.067,3.055-.1,1.046-.029,2.311-.046,3.764-.049V-42.2H-307c-1.786,0-3.3.017-4.486.05a29.709,29.709,0,0,0-3.2.246,18.106,18.106,0,0,0-2.578.535,17.63,17.63,0,0,0-2.43.924l-.019.008a19.468,19.468,0,0,0-9.085,7.609A21.271,21.271,0,0,0-332.2-21.1a20.149,20.149,0,0,0,2.118,9.175A21.559,21.559,0,0,0-323.912-4.6ZM-337.2.5H-342c-2.2,0-4.119-.068-5.692-.2a28.5,28.5,0,0,1-4.276-.662,14.4,14.4,0,0,1-3.522-1.347A28.079,28.079,0,0,1-358.712-3.8l-.007-.006a22.553,22.553,0,0,1-6.455-7.67A21.139,21.139,0,0,1-367.4-21.1a22.256,22.256,0,0,1,3.565-12.271,20.45,20.45,0,0,1,9.535-7.987,18.623,18.623,0,0,1,2.56-.972,19.115,19.115,0,0,1,2.722-.565,30.692,30.692,0,0,1,3.3-.254c1.2-.033,2.718-.05,4.514-.05h4a.5.5,0,0,1,.5.5v9.472a.5.5,0,0,1-.5.5c-1.655,0-3.081.016-4.236.049s-2.18.066-3.045.1a20.752,20.752,0,0,0-2.245.195,10.953,10.953,0,0,0-1.817.429l-.015,0a10.95,10.95,0,0,0-5.743,3.96,10.9,10.9,0,0,0-2.2,6.728,10.862,10.862,0,0,0,1.627,5.721,9.675,9.675,0,0,0,4.377,3.891l.019.009a18.938,18.938,0,0,0,1.9.826,9.254,9.254,0,0,0,1.945.472c.713.1,1.571.162,2.549.195s2.23.05,3.683.05h3.2a.5.5,0,0,1,.5.5V0A.5.5,0,0,1-337.2.5Zm-20.912-5.1a27.063,27.063,0,0,0,3.1,2.01,13.4,13.4,0,0,0,3.278,1.253,27.509,27.509,0,0,0,4.124.638c1.546.132,3.432.2,5.608.2h4.3V-9.1h-2.7c-1.465,0-2.715-.017-3.717-.05s-1.9-.1-2.651-.2a10.259,10.259,0,0,1-2.155-.525,19.92,19.92,0,0,1-1.991-.865,10.656,10.656,0,0,1-4.813-4.28,11.848,11.848,0,0,1-1.773-6.241,11.873,11.873,0,0,1,2.4-7.331,11.928,11.928,0,0,1,6.249-4.313,11.955,11.955,0,0,1,1.976-.466,21.735,21.735,0,0,1,2.355-.205c.868-.033,1.9-.067,3.055-.1,1.046-.029,2.311-.046,3.764-.049V-42.2h-3.5c-1.786,0-3.3.017-4.486.05a29.707,29.707,0,0,0-3.2.246,18.11,18.11,0,0,0-2.578.535,17.63,17.63,0,0,0-2.43.924l-.019.008a19.467,19.467,0,0,0-9.085,7.609A21.271,21.271,0,0,0-366.4-21.1a20.148,20.148,0,0,0,2.118,9.175A21.559,21.559,0,0,0-358.112-4.6ZM-156.05-8.5a12.441,12.441,0,0,1-4.979-.991,12.944,12.944,0,0,1-4.04-2.756,13,13,0,0,1-2.744-4.055,12.573,12.573,0,0,1-.987-5,12.4,12.4,0,0,1,1.039-5.052,14.042,14.042,0,0,1,2.737-4.1,12.224,12.224,0,0,1,4.049-2.763,12.8,12.8,0,0,1,5.026-.99,12.031,12.031,0,0,1,4.934,1.043,13.5,13.5,0,0,1,4.085,2.8,12.848,12.848,0,0,1,2.746,4.109A12.937,12.937,0,0,1-143.2-21.2a11.81,11.81,0,0,1-1.041,4.906,13.561,13.561,0,0,1-2.74,4,13.149,13.149,0,0,1-4.088,2.755A12.378,12.378,0,0,1-156.05-8.5Zm.1-24.7a11.808,11.808,0,0,0-4.635.91,11.229,11.229,0,0,0-3.72,2.537,13.046,13.046,0,0,0-2.541,3.8A11.4,11.4,0,0,0-167.8-21.3a11.58,11.58,0,0,0,.905,4.6,12.006,12.006,0,0,0,2.534,3.745,11.949,11.949,0,0,0,3.729,2.544,11.448,11.448,0,0,0,4.582.909,11.384,11.384,0,0,0,4.581-.958A12.154,12.154,0,0,0-147.689-13a12.565,12.565,0,0,0,2.538-3.7A10.817,10.817,0,0,0-144.2-21.2a11.944,11.944,0,0,0-.907-4.656,11.853,11.853,0,0,0-2.532-3.791,12.5,12.5,0,0,0-3.784-2.6A11.036,11.036,0,0,0-155.95-33.2ZM-395.2-8.5a13.264,13.264,0,0,1-5.091-.988A12.536,12.536,0,0,1-404.4-12.2a12.669,12.669,0,0,1-2.707-4.059A12.894,12.894,0,0,1-408.1-21.3a13.265,13.265,0,0,1,.988-5.091,12.159,12.159,0,0,1,2.764-4.118,13.12,13.12,0,0,1,4.157-2.7A13.264,13.264,0,0,1-395.1-34.2a12.531,12.531,0,0,1,5,.991,12.06,12.06,0,0,1,4.016,2.816,13.015,13.015,0,0,1,2.652,4.211A14.161,14.161,0,0,1-382.5-21a12.175,12.175,0,0,1-.993,4.952,12.99,12.99,0,0,1-2.7,3.951,12.025,12.025,0,0,1-4.068,2.661A13.227,13.227,0,0,1-395.2-8.5Zm.1-24.7a12.268,12.268,0,0,0-4.709.912,12.123,12.123,0,0,0-3.843,2.5,11.164,11.164,0,0,0-2.536,3.782A12.269,12.269,0,0,0-407.1-21.3a11.9,11.9,0,0,0,.911,4.656A11.673,11.673,0,0,0-403.7-12.9a11.54,11.54,0,0,0,3.787,2.491A12.268,12.268,0,0,0-395.2-9.5a12.231,12.231,0,0,0,4.564-.864A11.03,11.03,0,0,0-386.9-12.8a11.992,11.992,0,0,0,2.5-3.649A11.182,11.182,0,0,0-383.5-21a13.167,13.167,0,0,0-.866-4.818,12.02,12.02,0,0,0-2.448-3.889,11.066,11.066,0,0,0-3.684-2.584A11.537,11.537,0,0,0-395.1-33.2Zm346.8,7.8H-71.1a.5.5,0,0,1-.415-.221.5.5,0,0,1-.049-.467,12.824,12.824,0,0,1,4.734-5.977A12.715,12.715,0,0,1-59.6-34.2a12.537,12.537,0,0,1,7.285,2.239,11.65,11.65,0,0,1,4.488,5.9.5.5,0,0,1-.066.453A.5.5,0,0,1-48.3-25.4Zm-22.037-1h21.313a10.676,10.676,0,0,0-3.862-4.739A11.556,11.556,0,0,0-59.6-33.2a11.733,11.733,0,0,0-6.671,1.965A11.659,11.659,0,0,0-70.337-26.4Zm-194.763,1h-22.8a.5.5,0,0,1-.415-.221.5.5,0,0,1-.049-.467,12.824,12.824,0,0,1,4.735-5.977A12.715,12.715,0,0,1-276.4-34.2a12.537,12.537,0,0,1,7.285,2.239,11.651,11.651,0,0,1,4.488,5.9.5.5,0,0,1-.066.453A.5.5,0,0,1-265.1-25.4Zm-22.037-1h21.313a10.676,10.676,0,0,0-3.862-4.739A11.556,11.556,0,0,0-276.4-33.2a11.733,11.733,0,0,0-6.671,1.965A11.658,11.658,0,0,0-287.137-26.4ZM-95-48.6a6.214,6.214,0,0,1-4.608-1.951A6.463,6.463,0,0,1-101.5-55.2a6.378,6.378,0,0,1,1.946-4.654A6.378,6.378,0,0,1-94.9-61.8a6.415,6.415,0,0,1,4.7,1.9,6.415,6.415,0,0,1,1.9,4.7,6.3,6.3,0,0,1-2,4.658A6.545,6.545,0,0,1-95-48.6Zm.1-12.2a5.341,5.341,0,0,0-3.946,1.654A5.341,5.341,0,0,0-100.5-55.2a5.424,5.424,0,0,0,1.608,3.951A5.181,5.181,0,0,0-95-49.6a5.505,5.505,0,0,0,4-1.658A5.265,5.265,0,0,0-89.3-55.2a5.378,5.378,0,0,0-1.6-4A5.378,5.378,0,0,0-94.9-60.8Z" transform="translate(418 61.8)" fill="#ccc"/>
</svg>
