<svg xmlns="http://www.w3.org/2000/svg" width="484.1" height="62.9" viewBox="0 0 484.1 62.9">
  <path id="air_treatment" data-name="air treatment" d="M-98,1.1a21.216,21.216,0,0,1-8.653-1.793,23.394,23.394,0,0,1-7.1-4.854,23.222,23.222,0,0,1-4.855-7.153,21.567,21.567,0,0,1-1.792-8.7,22.1,22.1,0,0,1,1.74-8.7,22.519,22.519,0,0,1,4.807-7.158,22.674,22.674,0,0,1,7.106-4.806A21.739,21.739,0,0,1-98.1-43.8a22.061,22.061,0,0,1,8.9,1.792,23.188,23.188,0,0,1,7.359,5.16l.008.009a22.6,22.6,0,0,1,3.937,5.88A14.639,14.639,0,0,1-76.4-24.9a7.728,7.728,0,0,1-2.991,6.393,7.4,7.4,0,0,1-3.111,1.5,29.744,29.744,0,0,1-5.2.31h-21.063a11.83,11.83,0,0,0,4.053,5.092A11.686,11.686,0,0,0-97.8-9.5a11.69,11.69,0,0,0,9.412-4.615A.5.5,0,0,1-88-14.3h10.4a.5.5,0,0,1,.41.213.5.5,0,0,1,.06.458A23.268,23.268,0,0,1-80.4-7.549a20.661,20.661,0,0,1-4.816,4.611A23.747,23.747,0,0,1-91.244.025,21.631,21.631,0,0,1-98,1.1Zm-.1-43.9a20.745,20.745,0,0,0-8.252,1.659,21.68,21.68,0,0,0-6.794,4.594A21.524,21.524,0,0,0-117.74-29.7a21.106,21.106,0,0,0-1.66,8.3,20.575,20.575,0,0,0,1.708,8.3,22.226,22.226,0,0,0,4.645,6.847,22.4,22.4,0,0,0,6.8,4.646A20.224,20.224,0,0,0-98,.1,20.634,20.634,0,0,0-91.556-.925a22.75,22.75,0,0,0,5.773-2.837A19.661,19.661,0,0,0-81.2-8.151,22.065,22.065,0,0,0-78.325-13.3h-9.439A12.608,12.608,0,0,1-97.8-8.5a12.666,12.666,0,0,1-7.489-2.292,12.956,12.956,0,0,1-4.68-6.235.5.5,0,0,1,.059-.459.5.5,0,0,1,.41-.214h21.8a29.4,29.4,0,0,0,5-.29,6.409,6.409,0,0,0,2.689-1.3A6.688,6.688,0,0,0-77.4-24.9a13.659,13.659,0,0,0-1.4-5.641,21.6,21.6,0,0,0-3.759-5.616A22.193,22.193,0,0,0-89.6-41.092,21.069,21.069,0,0,0-98.1-42.8ZM-239.3,1.1a20.631,20.631,0,0,1-8.5-1.794,22.331,22.331,0,0,1-6.955-4.859,24.349,24.349,0,0,1-4.748-7.1A21.217,21.217,0,0,1-261.3-21.3a21.528,21.528,0,0,1,1.8-8.7,23.217,23.217,0,0,1,4.866-7.153,23.116,23.116,0,0,1,7.222-4.855A22.013,22.013,0,0,1-238.65-43.8a22.516,22.516,0,0,1,10.71,2.709,21.469,21.469,0,0,1,8.052,7.32l0,.006A24.173,24.173,0,0,1-218.2-30.6a18.551,18.551,0,0,1,1.083,3.443,29.112,29.112,0,0,1,.562,4.274c.1,1.571.151,3.449.151,5.582V0a.5.5,0,0,1-.5.5h-9.9a.5.5,0,0,1-.5-.5V-2.913A20.559,20.559,0,0,1-239.3,1.1Zm.65-43.9a21.018,21.018,0,0,0-8.371,1.709,22.12,22.12,0,0,0-6.911,4.645,22.222,22.222,0,0,0-4.656,6.847,20.534,20.534,0,0,0-1.712,8.3,20.224,20.224,0,0,0,1.707,8.247,23.354,23.354,0,0,0,4.552,6.8A21.337,21.337,0,0,0-247.4-1.606,19.638,19.638,0,0,0-239.3.1a19.879,19.879,0,0,0,12.2-4.4.5.5,0,0,1,.525-.051.5.5,0,0,1,.278.448V-.5h8.9V-17.3c0-2.112-.05-3.968-.149-5.518a28.115,28.115,0,0,0-.541-4.126,17.556,17.556,0,0,0-1.023-3.257,23.178,23.178,0,0,0-1.617-3.031,20.48,20.48,0,0,0-7.681-6.977A21.526,21.526,0,0,0-238.65-42.8ZM-287,1.1a21.216,21.216,0,0,1-8.653-1.793,23.394,23.394,0,0,1-7.1-4.854,23.222,23.222,0,0,1-4.855-7.153,21.567,21.567,0,0,1-1.792-8.7,22.1,22.1,0,0,1,1.74-8.7,22.518,22.518,0,0,1,4.807-7.158,22.674,22.674,0,0,1,7.106-4.806A21.739,21.739,0,0,1-287.1-43.8a22.061,22.061,0,0,1,8.9,1.792,23.187,23.187,0,0,1,7.358,5.16l.008.009a22.593,22.593,0,0,1,3.937,5.88,14.64,14.64,0,0,1,1.5,6.059,7.727,7.727,0,0,1-2.991,6.393,7.4,7.4,0,0,1-3.111,1.5,29.744,29.744,0,0,1-5.2.31h-21.063a11.828,11.828,0,0,0,4.053,5.092A11.686,11.686,0,0,0-286.8-9.5a11.69,11.69,0,0,0,9.412-4.615A.5.5,0,0,1-277-14.3h10.4a.5.5,0,0,1,.41.213.5.5,0,0,1,.06.458,23.269,23.269,0,0,1-3.271,6.08,20.661,20.661,0,0,1-4.816,4.611A23.749,23.749,0,0,1-280.244.025,21.631,21.631,0,0,1-287,1.1Zm-.1-43.9a20.745,20.745,0,0,0-8.252,1.659,21.68,21.68,0,0,0-6.794,4.594A21.524,21.524,0,0,0-306.74-29.7a21.106,21.106,0,0,0-1.66,8.3,20.575,20.575,0,0,0,1.708,8.3,22.226,22.226,0,0,0,4.645,6.847,22.4,22.4,0,0,0,6.8,4.646A20.224,20.224,0,0,0-287,.1a20.634,20.634,0,0,0,6.444-1.025,22.752,22.752,0,0,0,5.773-2.837A19.664,19.664,0,0,0-270.2-8.151a22.067,22.067,0,0,0,2.874-5.149h-9.439A12.608,12.608,0,0,1-286.8-8.5a12.666,12.666,0,0,1-7.489-2.292,12.955,12.955,0,0,1-4.68-6.235.5.5,0,0,1,.059-.459.5.5,0,0,1,.41-.214h21.8a29.4,29.4,0,0,0,5-.29,6.41,6.41,0,0,0,2.689-1.3A6.688,6.688,0,0,0-266.4-24.9a13.66,13.66,0,0,0-1.4-5.641,21.6,21.6,0,0,0-3.759-5.616,22.192,22.192,0,0,0-7.037-4.935A21.069,21.069,0,0,0-287.1-42.8ZM-464,1.1a20.631,20.631,0,0,1-8.5-1.794,22.33,22.33,0,0,1-6.955-4.859,24.348,24.348,0,0,1-4.748-7.1A21.216,21.216,0,0,1-486-21.3a21.527,21.527,0,0,1,1.8-8.7,23.217,23.217,0,0,1,4.866-7.153,23.116,23.116,0,0,1,7.222-4.855A22.013,22.013,0,0,1-463.35-43.8a22.516,22.516,0,0,1,10.71,2.709,21.468,21.468,0,0,1,8.052,7.32l0,.006A24.177,24.177,0,0,1-442.9-30.6a18.552,18.552,0,0,1,1.083,3.443,29.116,29.116,0,0,1,.562,4.274c.1,1.57.151,3.448.151,5.582V0a.5.5,0,0,1-.5.5h-9.9A.5.5,0,0,1-452,0V-2.913A20.559,20.559,0,0,1-464,1.1Zm.65-43.9a21.018,21.018,0,0,0-8.371,1.709,22.119,22.119,0,0,0-6.911,4.645,22.222,22.222,0,0,0-4.656,6.847A20.533,20.533,0,0,0-485-21.3a20.224,20.224,0,0,0,1.707,8.247,23.353,23.353,0,0,0,4.552,6.8A21.336,21.336,0,0,0-472.1-1.606,19.638,19.638,0,0,0-464,.1a19.879,19.879,0,0,0,12.2-4.4.5.5,0,0,1,.525-.051A.5.5,0,0,1-451-3.9V-.5h8.9V-17.3c0-2.113-.05-3.969-.149-5.518a28.113,28.113,0,0,0-.541-4.126,17.556,17.556,0,0,0-1.023-3.257,23.181,23.181,0,0,0-1.618-3.033,20.482,20.482,0,0,0-7.68-6.975A21.526,21.526,0,0,0-463.35-42.8ZM-2.4.5H-4A21.838,21.838,0,0,1-12.265-.954a14.971,14.971,0,0,1-5.987-4.4l0-.006a15.007,15.007,0,0,1-2.717-5.4,30.035,30.035,0,0,1-.826-7.737V-32.6h-6.8a.5.5,0,0,1-.5-.5v-9.6a.5.5,0,0,1,.5-.5h6.8V-57.7a.5.5,0,0,1,.5-.5h9.9a.5.5,0,0,1,.5.5v14.5h8.5a.5.5,0,0,1,.5.5v9.6a.5.5,0,0,1-.5.5h-8.5v14.213c0,3.142.559,5.317,1.661,6.466S-6.074-10.163-3.1-10.1h.7a.5.5,0,0,1,.5.5V0A.5.5,0,0,1-2.4.5ZM-17.477-5.98C-14.493-2.344-9.959-.5-4-.5h1.1V-9.1h-.21c-3.3-.069-5.543-.766-6.85-2.129s-1.939-3.7-1.939-7.159V-33.1a.5.5,0,0,1,.5-.5h8.5v-8.6h-8.5a.5.5,0,0,1-.5-.5V-57.2h-8.9v14.5a.5.5,0,0,1-.5.5h-6.8v8.6h6.8a.5.5,0,0,1,.5.5v14.611a29.071,29.071,0,0,0,.79,7.472A14.013,14.013,0,0,0-17.477-5.98ZM-33.2.5h-9.9a.5.5,0,0,1-.5-.5V-20.7a36.186,36.186,0,0,0-.341-5.666,10.843,10.843,0,0,0-1.186-3.49,6.292,6.292,0,0,0-2.491-2.408A7.167,7.167,0,0,0-51.15-33.2a7.774,7.774,0,0,0-3.6.894,6.594,6.594,0,0,0-2.635,2.367,9.675,9.675,0,0,0-1.178,3.181A31.484,31.484,0,0,0-58.9-21.4V0a.5.5,0,0,1-.5.5h-9.9a.5.5,0,0,1-.5-.5V-24.2a23.184,23.184,0,0,1,.977-7.156,17.868,17.868,0,0,1,3.143-5.656,17.213,17.213,0,0,1,6.348-5.041A19.036,19.036,0,0,1-51.25-43.8a19.17,19.17,0,0,1,8.029,1.7,18.183,18.183,0,0,1,6.393,4.883,15.85,15.85,0,0,1,3.256,5.781A29.246,29.246,0,0,1-32.7-23.5V0A.5.5,0,0,1-33.2.5Zm-9.4-1h8.9v-23a28.3,28.3,0,0,0-.832-7.659,14.866,14.866,0,0,0-3.059-5.416,17.2,17.2,0,0,0-6.046-4.62,18.178,18.178,0,0,0-7.613-1.6,18.043,18.043,0,0,0-7.66,1.653A16.222,16.222,0,0,0-64.9-36.392l-.005.006a16.873,16.873,0,0,0-2.972,5.341A22.2,22.2,0,0,0-68.8-24.2V-.5h8.9V-21.4a32.387,32.387,0,0,1,.356-5.542,10.669,10.669,0,0,1,1.3-3.514l0-.008a7.58,7.58,0,0,1,3.027-2.73A8.764,8.764,0,0,1-51.15-34.2a8.156,8.156,0,0,1,4.021,1.064,7.275,7.275,0,0,1,2.876,2.792,11.835,11.835,0,0,1,1.3,3.81A37.11,37.11,0,0,1-42.6-20.7Zm-84.9,1h-9.9a.5.5,0,0,1-.5-.5V-25.9c0-4.912-1.62-7.3-4.952-7.3a4.554,4.554,0,0,0-3.913,1.7,8.97,8.97,0,0,0-1.336,5.4V0a.5.5,0,0,1-.5.5h-9.9A.5.5,0,0,1-159,0V-25.9c0-2.61-.433-4.511-1.287-5.65a4.476,4.476,0,0,0-3.863-1.65,4.391,4.391,0,0,0-3.764,1.628A8.562,8.562,0,0,0-169.2-26.4V0a.5.5,0,0,1-.5.5h-9.9a.5.5,0,0,1-.5-.5V-25.4c0-1.47.034-2.743.1-3.782a18.305,18.305,0,0,1,.413-2.931,14.473,14.473,0,0,1,.779-2.435,15.659,15.659,0,0,1,1.19-2.222,14.594,14.594,0,0,1,5.545-5.172,16.109,16.109,0,0,1,7.7-1.859,15.936,15.936,0,0,1,10.7,3.912c2.662-2.6,6.273-3.912,10.743-3.912a16.629,16.629,0,0,1,7.59,1.754,14.87,14.87,0,0,1,5.649,4.965l.008.012a16.106,16.106,0,0,1,2.067,4.747A29.051,29.051,0,0,1-127-25.6V0A.5.5,0,0,1-127.5.5Zm-9.4-1h8.9V-25.6a28.11,28.11,0,0,0-.586-6.479,15.107,15.107,0,0,0-1.936-4.446,13.881,13.881,0,0,0-5.269-4.629A15.639,15.639,0,0,0-142.93-42.8c-4.378,0-7.863,1.327-10.358,3.945a.5.5,0,0,1-.7.025A14.98,14.98,0,0,0-164.37-42.8a15.12,15.12,0,0,0-7.229,1.741,13.609,13.609,0,0,0-5.173,4.825,14.667,14.667,0,0,0-1.117,2.082,13.467,13.467,0,0,0-.724,2.265A17.313,17.313,0,0,0-179-29.118c-.066,1.018-.1,2.269-.1,3.718V-.5h8.9V-26.4a9.491,9.491,0,0,1,1.489-5.778A5.393,5.393,0,0,1-164.15-34.2a5.476,5.476,0,0,1,4.663,2.05c1,1.335,1.487,3.379,1.487,6.25V-.5h8.9V-26.1a9.9,9.9,0,0,1,1.538-6,5.558,5.558,0,0,1,4.71-2.1,5.151,5.151,0,0,1,4.5,2.164A10.755,10.755,0,0,1-136.9-25.9ZM-187,.5h-1.6a21.837,21.837,0,0,1-8.265-1.454,14.971,14.971,0,0,1-5.987-4.4l0-.006a15.009,15.009,0,0,1-2.717-5.4,30.031,30.031,0,0,1-.826-7.737V-32.6h-6.8a.5.5,0,0,1-.5-.5v-9.6a.5.5,0,0,1,.5-.5h6.8V-57.7a.5.5,0,0,1,.5-.5h9.9a.5.5,0,0,1,.5.5v14.5h8.5a.5.5,0,0,1,.5.5v9.6a.5.5,0,0,1-.5.5h-8.5v14.213c0,3.142.559,5.317,1.661,6.466s3.166,1.758,6.144,1.821h.7a.5.5,0,0,1,.5.5V0A.5.5,0,0,1-187,.5Zm-15.075-6.478C-199.091-2.343-194.558-.5-188.6-.5h1.1V-9.1h-.21c-3.3-.069-5.543-.766-6.85-2.129s-1.939-3.7-1.939-7.159V-33.1a.5.5,0,0,1,.5-.5h8.5v-8.6H-196a.5.5,0,0,1-.5-.5V-57.2h-8.9v14.5a.5.5,0,0,1-.5.5h-6.8v8.6h6.8a.5.5,0,0,1,.5.5v14.611a29.07,29.07,0,0,0,.79,7.472A14.012,14.012,0,0,0-202.075-5.978ZM-322.5.5h-9.9a.5.5,0,0,1-.5-.5V-25.1a25.49,25.49,0,0,1,1.124-7.906,15.21,15.21,0,0,1,3.409-5.84,14.426,14.426,0,0,1,5.513-3.574A21.324,21.324,0,0,1-315.5-43.6h1a12.018,12.018,0,0,1,1.462.1.5.5,0,0,1,.438.5v9.5a.5.5,0,0,1-.464.5,18.772,18.772,0,0,0-4.478.776,5.7,5.7,0,0,0-2.625,1.7,7.085,7.085,0,0,0-1.4,3.038A23.5,23.5,0,0,0-322-22.5V0A.5.5,0,0,1-322.5.5Zm-9.4-1h8.9v-22a24.466,24.466,0,0,1,.462-5.21,8.065,8.065,0,0,1,1.6-3.462,6.683,6.683,0,0,1,3.075-2,18.852,18.852,0,0,1,4.258-.788v-8.59c-.333-.032-.635-.048-.9-.048h-1c-5.24,0-9.326,1.5-12.144,4.445S-331.9-30.806-331.9-25.1Zm-7.9,1h-1.6a21.838,21.838,0,0,1-8.265-1.454,14.97,14.97,0,0,1-5.987-4.4l0-.006a15.008,15.008,0,0,1-2.717-5.4,30.035,30.035,0,0,1-.826-7.737V-32.6H-366a.5.5,0,0,1-.5-.5v-9.6a.5.5,0,0,1,.5-.5h6.8V-57.7a.5.5,0,0,1,.5-.5h9.9a.5.5,0,0,1,.5.5v14.5h8.5a.5.5,0,0,1,.5.5v9.6a.5.5,0,0,1-.5.5h-8.5v14.213c0,3.142.559,5.317,1.661,6.466s3.166,1.758,6.144,1.821h.695a.5.5,0,0,1,.5.5V0A.5.5,0,0,1-339.8.5Zm-15.075-6.478C-351.891-2.343-347.358-.5-341.4-.5h1.1V-9.1h-.21c-3.3-.069-5.543-.766-6.85-2.129s-1.939-3.7-1.939-7.159V-33.1a.5.5,0,0,1,.5-.5h8.5v-8.6h-8.5a.5.5,0,0,1-.5-.5V-57.2h-8.9v14.5a.5.5,0,0,1-.5.5h-6.8v8.6h6.8a.5.5,0,0,1,.5.5v14.611a29.071,29.071,0,0,0,.79,7.472A14.012,14.012,0,0,0-354.875-5.978ZM-401.4.5h-9.9a.5.5,0,0,1-.5-.5V-25.1a25.49,25.49,0,0,1,1.124-7.906,15.21,15.21,0,0,1,3.409-5.84,14.426,14.426,0,0,1,5.513-3.574A21.324,21.324,0,0,1-394.4-43.6h1a12.018,12.018,0,0,1,1.462.1.5.5,0,0,1,.438.5v9.5a.5.5,0,0,1-.464.5,18.77,18.77,0,0,0-4.478.776,5.7,5.7,0,0,0-2.625,1.7,7.083,7.083,0,0,0-1.4,3.038,23.5,23.5,0,0,0-.438,4.99V0A.5.5,0,0,1-401.4.5Zm-9.4-1h8.9v-22a24.465,24.465,0,0,1,.462-5.21,8.064,8.064,0,0,1,1.6-3.462,6.682,6.682,0,0,1,3.075-2,18.852,18.852,0,0,1,4.258-.788v-8.59c-.333-.032-.635-.048-.9-.048h-1c-5.24,0-9.326,1.5-12.144,4.445S-410.8-30.806-410.8-25.1ZM-422,.5h-9.9a.5.5,0,0,1-.5-.5V-42.7a.5.5,0,0,1,.5-.5h9.9a.5.5,0,0,1,.5.5V0A.5.5,0,0,1-422,.5Zm-9.4-1h8.9V-42.2h-8.9Zm192.9-8a13.263,13.263,0,0,1-5.091-.988A12.535,12.535,0,0,1-247.7-12.2a12.668,12.668,0,0,1-2.707-4.059A12.894,12.894,0,0,1-251.4-21.3a13.263,13.263,0,0,1,.988-5.091,12.156,12.156,0,0,1,2.764-4.118,13.119,13.119,0,0,1,4.157-2.7A13.263,13.263,0,0,1-238.4-34.2a12.531,12.531,0,0,1,5,.991,12.062,12.062,0,0,1,4.016,2.816,13.015,13.015,0,0,1,2.652,4.211A14.163,14.163,0,0,1-225.8-21a12.175,12.175,0,0,1-.993,4.952,12.987,12.987,0,0,1-2.7,3.951,12.022,12.022,0,0,1-4.068,2.661A13.227,13.227,0,0,1-238.5-8.5Zm.1-24.7a12.268,12.268,0,0,0-4.709.912,12.126,12.126,0,0,0-3.843,2.5,11.163,11.163,0,0,0-2.536,3.782A12.269,12.269,0,0,0-250.4-21.3a11.9,11.9,0,0,0,.911,4.656A11.673,11.673,0,0,0-247-12.9a11.541,11.541,0,0,0,3.787,2.491A12.268,12.268,0,0,0-238.5-9.5a12.231,12.231,0,0,0,4.564-.864A11.029,11.029,0,0,0-230.2-12.8a11.993,11.993,0,0,0,2.5-3.649A11.183,11.183,0,0,0-226.8-21a13.168,13.168,0,0,0-.866-4.818,12.019,12.019,0,0,0-2.448-3.889,11.068,11.068,0,0,0-3.684-2.584A11.537,11.537,0,0,0-238.4-33.2ZM-463.2-8.5a13.263,13.263,0,0,1-5.091-.988A12.535,12.535,0,0,1-472.4-12.2a12.666,12.666,0,0,1-2.707-4.059A12.894,12.894,0,0,1-476.1-21.3a13.264,13.264,0,0,1,.988-5.091,12.155,12.155,0,0,1,2.764-4.118,13.119,13.119,0,0,1,4.157-2.7A13.262,13.262,0,0,1-463.1-34.2a12.529,12.529,0,0,1,5,.991,12.061,12.061,0,0,1,4.016,2.816,13.015,13.015,0,0,1,2.652,4.211A14.162,14.162,0,0,1-450.5-21a12.175,12.175,0,0,1-.993,4.952,12.988,12.988,0,0,1-2.7,3.951,12.024,12.024,0,0,1-4.068,2.661A13.226,13.226,0,0,1-463.2-8.5Zm.1-24.7a12.268,12.268,0,0,0-4.709.912,12.125,12.125,0,0,0-3.843,2.5,11.164,11.164,0,0,0-2.536,3.782A12.27,12.27,0,0,0-475.1-21.3a11.9,11.9,0,0,0,.911,4.656A11.672,11.672,0,0,0-471.7-12.9a11.54,11.54,0,0,0,3.787,2.491A12.268,12.268,0,0,0-463.2-9.5a12.231,12.231,0,0,0,4.564-.864A11.03,11.03,0,0,0-454.9-12.8a11.992,11.992,0,0,0,2.5-3.648A11.183,11.183,0,0,0-451.5-21a13.167,13.167,0,0,0-.866-4.818,12.02,12.02,0,0,0-2.448-3.889,11.068,11.068,0,0,0-3.684-2.584A11.537,11.537,0,0,0-463.1-33.2Zm376.6,7.8h-22.8a.5.5,0,0,1-.415-.221.5.5,0,0,1-.049-.467,12.825,12.825,0,0,1,4.734-5.977A12.716,12.716,0,0,1-97.8-34.2a12.537,12.537,0,0,1,7.285,2.239,11.651,11.651,0,0,1,4.488,5.9.5.5,0,0,1-.066.453A.5.5,0,0,1-86.5-25.4Zm-22.037-1h21.313a10.675,10.675,0,0,0-3.862-4.739A11.555,11.555,0,0,0-97.8-33.2a11.733,11.733,0,0,0-6.671,1.965A11.658,11.658,0,0,0-108.537-26.4Zm-166.963,1h-22.8a.5.5,0,0,1-.415-.221.5.5,0,0,1-.049-.467,12.825,12.825,0,0,1,4.734-5.977A12.716,12.716,0,0,1-286.8-34.2a12.537,12.537,0,0,1,7.285,2.239,11.651,11.651,0,0,1,4.488,5.9.5.5,0,0,1-.066.453A.5.5,0,0,1-275.5-25.4Zm-22.037-1h21.313a10.676,10.676,0,0,0-3.862-4.739A11.555,11.555,0,0,0-286.8-33.2a11.732,11.732,0,0,0-6.671,1.965A11.657,11.657,0,0,0-297.537-26.4ZM-427.1-48.6a6.214,6.214,0,0,1-4.609-1.951A6.464,6.464,0,0,1-433.6-55.2a6.378,6.378,0,0,1,1.946-4.654A6.378,6.378,0,0,1-427-61.8a6.414,6.414,0,0,1,4.7,1.9,6.414,6.414,0,0,1,1.9,4.7,6.3,6.3,0,0,1-2,4.658A6.545,6.545,0,0,1-427.1-48.6Zm.1-12.2a5.341,5.341,0,0,0-3.946,1.654A5.341,5.341,0,0,0-432.6-55.2a5.424,5.424,0,0,0,1.609,3.951A5.18,5.18,0,0,0-427.1-49.6a5.506,5.506,0,0,0,4-1.658,5.265,5.265,0,0,0,1.7-3.942,5.378,5.378,0,0,0-1.6-4A5.378,5.378,0,0,0-427-60.8Z" transform="translate(486 61.8)" fill="#0087f5"/>
</svg>
