<svg xmlns="http://www.w3.org/2000/svg" width="322" height="69.3" viewBox="0 0 322 69.3">
  <path id="hair_care" data-name="hair care" d="M-23.7,1.6A21.714,21.714,0,0,1-32.555-.236a23.894,23.894,0,0,1-7.252-4.957A23.721,23.721,0,0,1-44.766-12.5,22.065,22.065,0,0,1-46.6-21.4a22.6,22.6,0,0,1,1.78-8.891,23.017,23.017,0,0,1,4.913-7.316,23.173,23.173,0,0,1,7.262-4.911A22.237,22.237,0,0,1-23.8-44.3a22.558,22.558,0,0,1,9.1,1.834A23.686,23.686,0,0,1-7.182-37.2l.017.018a23.094,23.094,0,0,1,4.024,6.01A15.131,15.131,0,0,1-1.6-24.9a8.205,8.205,0,0,1-3.182,6.786A7.891,7.891,0,0,1-8.1-16.519a30.149,30.149,0,0,1-5.3.319H-33.68a11.211,11.211,0,0,0,3.559,4.184A11.2,11.2,0,0,0-23.5-10a11.072,11.072,0,0,0,9.024-4.431l.3-.369h12.3l-.488,1.342A23.767,23.767,0,0,1-5.7-7.248a21.159,21.159,0,0,1-4.933,4.722A24.249,24.249,0,0,1-16.788.5,22.131,22.131,0,0,1-23.7,1.6Zm-.1-43.9a20.248,20.248,0,0,0-8.055,1.619,21.181,21.181,0,0,0-6.638,4.489,21.026,21.026,0,0,0-4.487,6.684A20.609,20.609,0,0,0-44.6-21.4a20.077,20.077,0,0,0,1.666,8.1,21.728,21.728,0,0,0,4.541,6.694,21.9,21.9,0,0,0,6.648,4.543A19.726,19.726,0,0,0-23.7-.4a20.134,20.134,0,0,0,6.288-1,22.249,22.249,0,0,0,5.647-2.775A19.163,19.163,0,0,0-7.3-8.452,21.349,21.349,0,0,0-4.775-12.8h-8.458A13.051,13.051,0,0,1-23.5-8a13.156,13.156,0,0,1-7.779-2.385,13.447,13.447,0,0,1-4.86-6.47l-.5-1.346H-13.4a29.014,29.014,0,0,0,4.9-.281,5.918,5.918,0,0,0,2.478-1.206A6.216,6.216,0,0,0-3.6-24.9a13.171,13.171,0,0,0-1.358-5.432,21.1,21.1,0,0,0-3.667-5.48A21.692,21.692,0,0,0-15.5-40.634,20.572,20.572,0,0,0-23.8-42.3ZM-100.7,1.6a21.128,21.128,0,0,1-8.709-1.838,22.83,22.83,0,0,1-7.11-4.967,24.848,24.848,0,0,1-4.845-7.24A21.713,21.713,0,0,1-123.2-21.3a22.025,22.025,0,0,1,1.838-8.9,23.715,23.715,0,0,1,4.97-7.306,23.615,23.615,0,0,1,7.377-4.96A22.509,22.509,0,0,1-100.05-44.3,23.011,23.011,0,0,1-89.1-41.532a21.963,21.963,0,0,1,8.237,7.49l.008.012A24.689,24.689,0,0,1-79.138-30.8a19.054,19.054,0,0,1,1.113,3.536,29.611,29.611,0,0,1,.572,4.348c.1,1.58.152,3.469.152,5.614V1H-89.2V-1.969A20.793,20.793,0,0,1-100.7,1.6Zm.65-43.9a20.521,20.521,0,0,0-8.173,1.668,21.623,21.623,0,0,0-6.756,4.54A21.723,21.723,0,0,0-119.53-29.4a20.036,20.036,0,0,0-1.67,8.1,19.726,19.726,0,0,0,1.664,8.045,22.853,22.853,0,0,0,4.455,6.66,20.839,20.839,0,0,0,6.49,4.533A19.14,19.14,0,0,0-100.7-.4,19.391,19.391,0,0,0-88.806-4.7L-87.2-5.92V-1h7.9V-17.3c0-2.1-.05-3.948-.148-5.486a27.622,27.622,0,0,0-.531-4.052A17.059,17.059,0,0,0-80.972-30a22.68,22.68,0,0,0-1.579-2.961,19.986,19.986,0,0,0-7.5-6.806A21.031,21.031,0,0,0-100.05-42.3ZM-257.4,1.6a21.128,21.128,0,0,1-8.709-1.838,22.83,22.83,0,0,1-7.11-4.967,24.85,24.85,0,0,1-4.845-7.24A21.715,21.715,0,0,1-279.9-21.3a22.024,22.024,0,0,1,1.838-8.9,23.715,23.715,0,0,1,4.97-7.306,23.614,23.614,0,0,1,7.377-4.96A22.509,22.509,0,0,1-256.75-44.3,23.011,23.011,0,0,1-245.8-41.532a21.963,21.963,0,0,1,8.237,7.49l.008.012a24.684,24.684,0,0,1,1.723,3.232,19.052,19.052,0,0,1,1.113,3.536,29.61,29.61,0,0,1,.572,4.348c.1,1.58.152,3.469.152,5.614V1h-11.9V-1.969A20.793,20.793,0,0,1-257.4,1.6Zm.65-43.9a20.521,20.521,0,0,0-8.173,1.668,21.624,21.624,0,0,0-6.756,4.54A21.724,21.724,0,0,0-276.23-29.4a20.036,20.036,0,0,0-1.67,8.1,19.727,19.727,0,0,0,1.664,8.045,22.856,22.856,0,0,0,4.455,6.66,20.839,20.839,0,0,0,6.49,4.533A19.14,19.14,0,0,0-257.4-.4a19.391,19.391,0,0,0,11.894-4.3L-243.9-5.92V-1h7.9V-17.3c0-2.1-.05-3.948-.148-5.486a27.621,27.621,0,0,0-.531-4.052A17.051,17.051,0,0,0-237.672-30a22.67,22.67,0,0,0-1.58-2.962,19.987,19.987,0,0,0-7.5-6.8A21.031,21.031,0,0,0-256.75-42.3ZM-58.2,1H-70.1V-25.1a25.984,25.984,0,0,1,1.148-8.062,15.706,15.706,0,0,1,3.523-6.029C-62.317-42.448-57.866-44.1-52.2-44.1h1a12.516,12.516,0,0,1,1.524.108l.876.11v11.314l-.929.066a18.289,18.289,0,0,0-4.355.751,5.211,5.211,0,0,0-2.4,1.545,6.594,6.594,0,0,0-1.29,2.826A23.014,23.014,0,0,0-58.2-22.5Zm-9.9-2h7.9V-22.5a24.947,24.947,0,0,1,.474-5.319,8.554,8.554,0,0,1,1.71-3.674,7.173,7.173,0,0,1,3.3-2.155,18.489,18.489,0,0,1,3.916-.769v-7.671q-.213-.011-.4-.011h-1c-5.1,0-9.062,1.444-11.782,4.291S-68.1-30.673-68.1-25.1Zm-57.6,2h-5.8c-2.218,0-4.147-.068-5.735-.2a29,29,0,0,1-4.352-.675,14.9,14.9,0,0,1-3.644-1.395,28.579,28.579,0,0,1-3.28-2.124l-.015-.011a23.048,23.048,0,0,1-6.6-7.841A21.634,21.634,0,0,1-157.4-21.1a22.748,22.748,0,0,1,3.645-12.542A20.941,20.941,0,0,1-144-41.817a19.111,19.111,0,0,1,2.62-.993,19.607,19.607,0,0,1,2.793-.581,31.2,31.2,0,0,1,3.359-.259c1.2-.033,2.727-.05,4.528-.05h5v11.472h-1c-1.649,0-3.069.016-4.222.049s-2.181.066-3.04.1a20.265,20.265,0,0,0-2.19.19,10.456,10.456,0,0,0-1.734.409l-.031.01A10.322,10.322,0,0,0-143.4-27.69a10.269,10.269,0,0,0-2.1,6.426,10.369,10.369,0,0,0,1.554,5.461,9.062,9.062,0,0,0,4.154,3.694l.038.018a18.41,18.41,0,0,0,1.849.8,8.756,8.756,0,0,0,1.839.446c.7.094,1.537.159,2.5.191.984.033,2.218.049,3.667.049h4.2Zm-21.609-6a26.577,26.577,0,0,0,3.04,1.97,12.9,12.9,0,0,0,3.156,1.205,27.013,27.013,0,0,0,4.048.625c1.531.13,3.4.2,5.565.2h3.8V-8.6h-2.2c-1.471,0-2.727-.017-3.733-.051-1.029-.034-1.938-.1-2.7-.208a10.753,10.753,0,0,1-2.261-.551,20.4,20.4,0,0,1-2.033-.882,11.148,11.148,0,0,1-5.026-4.472,12.341,12.341,0,0,1-1.846-6.5A12.363,12.363,0,0,1-145-28.9a12.419,12.419,0,0,1,6.5-4.488,12.458,12.458,0,0,1,2.051-.483,22.231,22.231,0,0,1,2.41-.21c.866-.033,1.9-.067,3.06-.1.93-.026,2.03-.042,3.278-.047V-41.7h-3c-1.782,0-3.287.017-4.472.05a29.2,29.2,0,0,0-3.141.241,17.613,17.613,0,0,0-2.507.519,17.14,17.14,0,0,0-2.361.9l-.038.017a18.977,18.977,0,0,0-8.855,7.418A20.779,20.779,0,0,0-155.4-21.1a19.653,19.653,0,0,0,2.064,8.949A21.066,21.066,0,0,0-147.309-5ZM-193.8,1h-11.9V-25.1a25.984,25.984,0,0,1,1.148-8.062,15.706,15.706,0,0,1,3.523-6.029c3.112-3.257,7.563-4.909,13.229-4.909h1a12.517,12.517,0,0,1,1.524.108l.876.11v11.314l-.929.066a18.289,18.289,0,0,0-4.355.751,5.211,5.211,0,0,0-2.4,1.545,6.594,6.594,0,0,0-1.29,2.826,23.013,23.013,0,0,0-.426,4.88Zm-9.9-2h7.9V-22.5a24.948,24.948,0,0,1,.474-5.319,8.555,8.555,0,0,1,1.71-3.674,7.173,7.173,0,0,1,3.3-2.155,18.49,18.49,0,0,1,3.916-.769v-7.671q-.213-.011-.4-.011h-1c-5.1,0-9.062,1.444-11.782,4.291S-203.7-30.673-203.7-25.1Zm-10.7,2h-11.9V-43.7h11.9Zm-9.9-2h7.9V-41.7h-7.9Zm-61.2,2h-11.9V-22a27.786,27.786,0,0,0-.329-4.91,9.518,9.518,0,0,0-1.014-2.866,6.591,6.591,0,0,0-2.36-2.1,6.514,6.514,0,0,0-3.148-.828,7.281,7.281,0,0,0-3.368.838,7.282,7.282,0,0,0-2.565,2.125,8.891,8.891,0,0,0-1.139,2.941,23.83,23.83,0,0,0-.376,4.7V1h-11.9V-67.7h11.9v25.155a17.959,17.959,0,0,1,3.2-1.174,18.968,18.968,0,0,1,4.7-.581,17.669,17.669,0,0,1,7.681,1.748,18.107,18.107,0,0,1,6.187,4.812,17.407,17.407,0,0,1,3.39,6.3A29.494,29.494,0,0,1-285.5-23.1Zm-9.9-2h7.9V-23.1a27.532,27.532,0,0,0-.958-7.764,15.419,15.419,0,0,0-3.005-5.59l-.007-.008a16.123,16.123,0,0,0-5.511-4.285A15.685,15.685,0,0,0-303.8-42.3a16.968,16.968,0,0,0-4.2.519,17.424,17.424,0,0,0-4.206,1.752l-1.492.843V-65.7h-7.9V-1h7.9V-22.1a25.751,25.751,0,0,1,.419-5.1,10.852,10.852,0,0,1,1.427-3.633l.035-.051a9.247,9.247,0,0,1,3.282-2.749,9.262,9.262,0,0,1,4.285-1.062,8.492,8.492,0,0,1,4.107,1.072,8.556,8.556,0,0,1,3.088,2.775l.036.058a11.483,11.483,0,0,1,1.255,3.5A29.2,29.2,0,0,1-295.4-22ZM-99.9-8a13.761,13.761,0,0,1-5.282-1.026,13.033,13.033,0,0,1-4.275-2.817,13.166,13.166,0,0,1-2.814-4.218A13.39,13.39,0,0,1-113.3-21.3a13.761,13.761,0,0,1,1.026-5.282,12.653,12.653,0,0,1,2.878-4.286,13.617,13.617,0,0,1,4.315-2.807A13.761,13.761,0,0,1-99.8-34.7a13.027,13.027,0,0,1,5.2,1.032,12.557,12.557,0,0,1,4.181,2.932,13.513,13.513,0,0,1,2.754,4.372A14.66,14.66,0,0,1-86.7-21a12.67,12.67,0,0,1-1.035,5.154,13.486,13.486,0,0,1-2.808,4.1,12.52,12.52,0,0,1-4.236,2.771A13.724,13.724,0,0,1-99.9-8Zm.1-24.7a11.771,11.771,0,0,0-4.518.874A11.628,11.628,0,0,0-108-29.432a10.667,10.667,0,0,0-2.422,3.614A11.771,11.771,0,0,0-111.3-21.3a11.4,11.4,0,0,0,.871,4.461,11.176,11.176,0,0,0,2.386,3.582,11.044,11.044,0,0,0,3.625,2.383A11.771,11.771,0,0,0-99.9-10a11.734,11.734,0,0,0,4.379-.828,10.532,10.532,0,0,0,3.564-2.329,11.493,11.493,0,0,0,2.392-3.5A10.686,10.686,0,0,0-88.7-21a12.671,12.671,0,0,0-.831-4.636,11.522,11.522,0,0,0-2.346-3.728A10.569,10.569,0,0,0-95.4-31.832,11.041,11.041,0,0,0-99.8-32.7ZM-256.6-8a13.761,13.761,0,0,1-5.282-1.026,13.033,13.033,0,0,1-4.275-2.817,13.166,13.166,0,0,1-2.814-4.218A13.391,13.391,0,0,1-270-21.3a13.761,13.761,0,0,1,1.026-5.282,12.653,12.653,0,0,1,2.878-4.286,13.617,13.617,0,0,1,4.315-2.807A13.761,13.761,0,0,1-256.5-34.7a13.027,13.027,0,0,1,5.2,1.032,12.557,12.557,0,0,1,4.181,2.932,13.513,13.513,0,0,1,2.754,4.372A14.66,14.66,0,0,1-243.4-21a12.67,12.67,0,0,1-1.035,5.154,13.486,13.486,0,0,1-2.808,4.1,12.52,12.52,0,0,1-4.236,2.771A13.724,13.724,0,0,1-256.6-8Zm.1-24.7a11.771,11.771,0,0,0-4.518.874,11.628,11.628,0,0,0-3.685,2.393,10.667,10.667,0,0,0-2.422,3.614A11.772,11.772,0,0,0-268-21.3a11.4,11.4,0,0,0,.871,4.461,11.176,11.176,0,0,0,2.386,3.582,11.044,11.044,0,0,0,3.625,2.383A11.771,11.771,0,0,0-256.6-10a11.734,11.734,0,0,0,4.379-.828,10.532,10.532,0,0,0,3.564-2.329,11.493,11.493,0,0,0,2.392-3.5A10.686,10.686,0,0,0-245.4-21a12.671,12.671,0,0,0-.831-4.636,11.522,11.522,0,0,0-2.346-3.728,10.569,10.569,0,0,0-3.519-2.468A11.041,11.041,0,0,0-256.5-32.7Zm245.7,7.8H-36.484l.558-1.376a13.316,13.316,0,0,1,4.919-6.2A13.206,13.206,0,0,1-23.5-34.7a13.028,13.028,0,0,1,7.57,2.328,12.141,12.141,0,0,1,4.676,6.147Zm-22.623-2H-13.7a10.081,10.081,0,0,0-3.371-3.828A11.064,11.064,0,0,0-23.5-32.7a11.242,11.242,0,0,0-6.392,1.88A10.993,10.993,0,0,0-33.423-26.9ZM-220.5-48.1a6.7,6.7,0,0,1-4.967-2.1,6.948,6.948,0,0,1-2.033-5,6.862,6.862,0,0,1,2.093-5.007A6.862,6.862,0,0,1-220.4-62.3a6.9,6.9,0,0,1,5.057,2.043A6.9,6.9,0,0,1-213.3-55.2a6.782,6.782,0,0,1-2.153,5.017A7.03,7.03,0,0,1-220.5-48.1Zm.1-12.2a4.863,4.863,0,0,0-3.593,1.507A4.863,4.863,0,0,0-225.5-55.2a4.946,4.946,0,0,0,1.467,3.6,4.7,4.7,0,0,0,3.533,1.5,5.027,5.027,0,0,0,3.653-1.517A4.788,4.788,0,0,0-215.3-55.2a4.9,4.9,0,0,0-1.457-3.643A4.9,4.9,0,0,0-220.4-60.3Z" transform="translate(323.6 67.7)" fill="#f55"/>
</svg>
