<svg xmlns="http://www.w3.org/2000/svg" width="276.8" height="92" viewBox="0 0 276.8 92">
  <path id="lighting" d="M-24.5,24.8a20.9,20.9,0,0,1-8.195-1.606,19.9,19.9,0,0,1-6.564-4.457,20.4,20.4,0,0,1-4.306-6.7A22.378,22.378,0,0,1-45.1,3.7a.5.5,0,0,1,.5-.5H-35a.5.5,0,0,1,.5.47,11.97,11.97,0,0,0,2.966,7.689A8.966,8.966,0,0,0-24.7,14.2a10.115,10.115,0,0,0,4.957-1.327,9.187,9.187,0,0,0,3.608-3.484C-15.116,7.619-14.6,4.7-14.6.7V-2.606A19.865,19.865,0,0,1-26.3,1.1,21.567,21.567,0,0,1-35-.692a22.612,22.612,0,0,1-7.106-4.858,23.674,23.674,0,0,1-4.8-7.15A21.567,21.567,0,0,1-48.7-21.4a21.528,21.528,0,0,1,1.8-8.7,22.608,22.608,0,0,1,4.869-7.106,23.562,23.562,0,0,1,7.219-4.8A22.258,22.258,0,0,1-25.95-43.8a21.334,21.334,0,0,1,10.261,2.61A22.874,22.874,0,0,1-7.7-33.984,20.928,20.928,0,0,1-4.667-27.07,38.185,38.185,0,0,1-3.7-18V1.3a33.774,33.774,0,0,1-.979,8.988A20.447,20.447,0,0,1-8.042,16.9l-.007.009A20.49,20.49,0,0,1-15.267,22.7,20.925,20.925,0,0,1-24.5,24.8ZM-44.095,4.2a21.213,21.213,0,0,0,1.459,7.469,19.408,19.408,0,0,0,4.094,6.371,18.907,18.907,0,0,0,6.236,4.233A19.9,19.9,0,0,0-24.5,23.8a19.933,19.933,0,0,0,8.8-2A19.5,19.5,0,0,0-8.838,16.3a19.45,19.45,0,0,0,3.2-6.283A32.82,32.82,0,0,0-4.7,1.3V-18a37.2,37.2,0,0,0-.938-8.83,19.934,19.934,0,0,0-2.883-6.586,21.884,21.884,0,0,0-7.644-6.895A20.345,20.345,0,0,0-25.95-42.8a21.264,21.264,0,0,0-8.471,1.709,22.567,22.567,0,0,0-6.914,4.6A21.613,21.613,0,0,0-45.988-29.7,20.534,20.534,0,0,0-47.7-21.4a20.574,20.574,0,0,0,1.708,8.3,22.678,22.678,0,0,0,4.6,6.85A21.618,21.618,0,0,0-34.6-1.608,20.574,20.574,0,0,0-26.3.1,18.953,18.953,0,0,0-14.407-3.995a.5.5,0,0,1,.527-.054.5.5,0,0,1,.28.449V.7c0,4.232-.545,7.237-1.667,9.185a10.17,10.17,0,0,1-3.99,3.862A11.1,11.1,0,0,1-24.7,15.2a9.929,9.929,0,0,1-7.566-3.159,12.733,12.733,0,0,1-3.2-7.841ZM-217.3,24.8a20.9,20.9,0,0,1-8.195-1.606,19.9,19.9,0,0,1-6.564-4.457,20.4,20.4,0,0,1-4.306-6.7A22.379,22.379,0,0,1-237.9,3.7a.5.5,0,0,1,.5-.5h9.6a.5.5,0,0,1,.5.47,11.97,11.97,0,0,0,2.966,7.689A8.966,8.966,0,0,0-217.5,14.2a10.115,10.115,0,0,0,4.957-1.327,9.187,9.187,0,0,0,3.608-3.484C-207.916,7.619-207.4,4.7-207.4.7V-2.606A19.865,19.865,0,0,1-219.1,1.1a21.567,21.567,0,0,1-8.7-1.792,22.612,22.612,0,0,1-7.106-4.858,23.674,23.674,0,0,1-4.8-7.15,21.567,21.567,0,0,1-1.792-8.7,21.528,21.528,0,0,1,1.8-8.7,22.607,22.607,0,0,1,4.869-7.106,23.562,23.562,0,0,1,7.219-4.8A22.258,22.258,0,0,1-218.75-43.8a21.334,21.334,0,0,1,10.261,2.61,22.873,22.873,0,0,1,7.991,7.206,20.927,20.927,0,0,1,3.031,6.914A38.186,38.186,0,0,1-196.5-18V1.3a33.774,33.774,0,0,1-.979,8.988,20.447,20.447,0,0,1-3.363,6.612l-.007.009a20.49,20.49,0,0,1-7.218,5.791A20.925,20.925,0,0,1-217.3,24.8ZM-236.895,4.2a21.213,21.213,0,0,0,1.459,7.469,19.408,19.408,0,0,0,4.094,6.371,18.907,18.907,0,0,0,6.236,4.233A19.9,19.9,0,0,0-217.3,23.8a19.933,19.933,0,0,0,8.8-2,19.5,19.5,0,0,0,6.866-5.505,19.45,19.45,0,0,0,3.2-6.283A32.82,32.82,0,0,0-197.5,1.3V-18a37.2,37.2,0,0,0-.938-8.83,19.935,19.935,0,0,0-2.883-6.586,21.883,21.883,0,0,0-7.644-6.895,20.345,20.345,0,0,0-9.785-2.49,21.264,21.264,0,0,0-8.471,1.709,22.567,22.567,0,0,0-6.914,4.6,21.612,21.612,0,0,0-4.653,6.794,20.533,20.533,0,0,0-1.712,8.3,20.574,20.574,0,0,0,1.708,8.3,22.678,22.678,0,0,0,4.6,6.85A21.618,21.618,0,0,0-227.4-1.608,20.574,20.574,0,0,0-219.1.1a18.953,18.953,0,0,0,11.893-4.095.5.5,0,0,1,.527-.054.5.5,0,0,1,.28.449V.7c0,4.232-.545,7.237-1.667,9.185a10.17,10.17,0,0,1-3.99,3.862A11.1,11.1,0,0,1-217.5,15.2a9.929,9.929,0,0,1-7.566-3.159,12.733,12.733,0,0,1-3.2-7.841ZM-55.8.5h-9.9a.5.5,0,0,1-.5-.5V-20.7a36.188,36.188,0,0,0-.341-5.666,10.842,10.842,0,0,0-1.186-3.49,6.292,6.292,0,0,0-2.491-2.408A7.167,7.167,0,0,0-73.75-33.2a7.775,7.775,0,0,0-3.6.894,6.6,6.6,0,0,0-2.635,2.367,9.678,9.678,0,0,0-1.178,3.182A31.492,31.492,0,0,0-81.5-21.4V0a.5.5,0,0,1-.5.5h-9.9a.5.5,0,0,1-.5-.5V-24.2a23.183,23.183,0,0,1,.977-7.156,17.866,17.866,0,0,1,3.142-5.655,17.212,17.212,0,0,1,6.349-5.043A19.036,19.036,0,0,1-73.85-43.8a19.17,19.17,0,0,1,8.029,1.7,18.182,18.182,0,0,1,6.393,4.883,15.849,15.849,0,0,1,3.256,5.781A29.244,29.244,0,0,1-55.3-23.5V0A.5.5,0,0,1-55.8.5Zm-9.4-1h8.9v-23a28.3,28.3,0,0,0-.832-7.659,14.867,14.867,0,0,0-3.059-5.416,17.2,17.2,0,0,0-6.046-4.62,18.178,18.178,0,0,0-7.613-1.6,18.045,18.045,0,0,0-7.66,1.653A16.223,16.223,0,0,0-87.5-36.392l-.005.006a16.874,16.874,0,0,0-2.972,5.341A22.2,22.2,0,0,0-91.4-24.2V-.5h8.9V-21.4a32.391,32.391,0,0,1,.356-5.542,10.67,10.67,0,0,1,1.305-3.514l0-.008a7.579,7.579,0,0,1,3.027-2.73A8.765,8.765,0,0,1-73.75-34.2a8.156,8.156,0,0,1,4.021,1.064,7.276,7.276,0,0,1,2.876,2.792,11.838,11.838,0,0,1,1.3,3.81A37.113,37.113,0,0,1-65.2-20.7Zm-37.4,1h-9.9A.5.5,0,0,1-113,0V-42.7a.5.5,0,0,1,.5-.5h9.9a.5.5,0,0,1,.5.5V0A.5.5,0,0,1-102.6.5Zm-9.4-1h8.9V-42.2H-112Zm-8.4,1H-122a21.837,21.837,0,0,1-8.265-1.454,14.971,14.971,0,0,1-5.987-4.4l0-.006a15.008,15.008,0,0,1-2.717-5.4,30.033,30.033,0,0,1-.826-7.738V-32.6h-6.8a.5.5,0,0,1-.5-.5v-9.6a.5.5,0,0,1,.5-.5h6.8V-57.7a.5.5,0,0,1,.5-.5h9.9a.5.5,0,0,1,.5.5v14.5h8.5a.5.5,0,0,1,.5.5v9.6a.5.5,0,0,1-.5.5h-8.5v14.213c0,3.142.559,5.317,1.661,6.466s3.166,1.758,6.145,1.821h.695a.5.5,0,0,1,.5.5V0A.5.5,0,0,1-120.4.5Zm-15.076-6.48C-132.493-2.344-127.958-.5-122-.5h1.1V-9.1h-.21c-3.3-.069-5.543-.765-6.85-2.129s-1.939-3.7-1.939-7.159V-33.1a.5.5,0,0,1,.5-.5h8.5v-8.6h-8.5a.5.5,0,0,1-.5-.5V-57.2h-8.9v14.5a.5.5,0,0,1-.5.5h-6.8v8.6h6.8a.5.5,0,0,1,.5.5v14.611a29.073,29.073,0,0,0,.79,7.472A14.014,14.014,0,0,0-135.476-5.98ZM-151.2.5h-9.9a.5.5,0,0,1-.5-.5V-22a28.243,28.243,0,0,0-.339-5.005,10,10,0,0,0-1.078-3.033,7.078,7.078,0,0,0-2.547-2.273,7.008,7.008,0,0,0-3.388-.889,7.776,7.776,0,0,0-3.6.894,7.769,7.769,0,0,0-2.749,2.288,9.372,9.372,0,0,0-1.215,3.12,24.307,24.307,0,0,0-.387,4.8V0a.5.5,0,0,1-.5.5h-9.9a.5.5,0,0,1-.5-.5V-66.7a.5.5,0,0,1,.5-.5h9.9a.5.5,0,0,1,.5.5v24.961a18.165,18.165,0,0,1,3.826-1.495A18.467,18.467,0,0,1-168.5-43.8a17.173,17.173,0,0,1,7.466,1.7,17.612,17.612,0,0,1,6.018,4.68,16.91,16.91,0,0,1,3.3,6.128A29,29,0,0,1-150.7-23.1V0A.5.5,0,0,1-151.2.5Zm-9.4-1h8.9V-23.1a28.022,28.022,0,0,0-.979-7.907,15.916,15.916,0,0,0-3.1-5.77l0,0a16.62,16.62,0,0,0-5.681-4.418,16.181,16.181,0,0,0-7.034-1.6,17.467,17.467,0,0,0-4.326.534,17.921,17.921,0,0,0-4.328,1.8.5.5,0,0,1-.5,0,.5.5,0,0,1-.248-.432V-66.2h-8.9V-.5h8.9V-22.1a25.269,25.269,0,0,1,.408-5,10.354,10.354,0,0,1,1.359-3.467l.017-.025a8.752,8.752,0,0,1,3.107-2.6,8.767,8.767,0,0,1,4.056-1.006,8,8,0,0,1,3.867,1.011,8.061,8.061,0,0,1,2.911,2.613l.018.029a10.985,10.985,0,0,1,1.2,3.352A29.163,29.163,0,0,1-160.6-22Zm-88.6,1h-9.9a.5.5,0,0,1-.5-.5V-42.7a.5.5,0,0,1,.5-.5h9.9a.5.5,0,0,1,.5.5V0A.5.5,0,0,1-249.2.5Zm-9.4-1h8.9V-42.2h-8.9Zm-11.5,1H-280a.5.5,0,0,1-.5-.5V-66.7a.5.5,0,0,1,.5-.5h9.9a.5.5,0,0,1,.5.5V0A.5.5,0,0,1-270.1.5Zm-9.4-1h8.9V-66.2h-8.9ZM-26-8.5a12.894,12.894,0,0,1-5.045-.989,12.279,12.279,0,0,1-4.064-2.762,13.271,13.271,0,0,1-2.7-4.1A13.154,13.154,0,0,1-38.8-21.5a12.894,12.894,0,0,1,.989-5.045A12.667,12.667,0,0,1-35.1-30.6a12.023,12.023,0,0,1,4.068-2.661A13.77,13.77,0,0,1-25.9-34.2a12.116,12.116,0,0,1,4.953,1.043,12.935,12.935,0,0,1,4.056,2.809,12.986,12.986,0,0,1,2.7,4.211A13.905,13.905,0,0,1-13.2-20.9a12.034,12.034,0,0,1-.991,4.8,11.866,11.866,0,0,1-2.766,3.966,13.752,13.752,0,0,1-4.1,2.647A12.64,12.64,0,0,1-26-8.5Zm.1-24.7a12.777,12.777,0,0,0-4.764.864A11.029,11.029,0,0,0-34.4-29.9a11.673,11.673,0,0,0-2.493,3.741A11.9,11.9,0,0,0-37.8-21.5a12.161,12.161,0,0,0,.911,4.755,12.275,12.275,0,0,0,2.5,3.8,11.284,11.284,0,0,0,3.736,2.538A11.9,11.9,0,0,0-26-9.5a11.645,11.645,0,0,0,4.556-.911,12.755,12.755,0,0,0,3.8-2.453A10.871,10.871,0,0,0-15.109-16.5a11.04,11.04,0,0,0,.909-4.4,12.91,12.91,0,0,0-.914-4.863,11.99,11.99,0,0,0-2.5-3.889,11.94,11.94,0,0,0-3.744-2.591A11.123,11.123,0,0,0-25.9-33.2ZM-218.8-8.5a12.894,12.894,0,0,1-5.045-.989,12.279,12.279,0,0,1-4.064-2.762,13.271,13.271,0,0,1-2.7-4.1A13.154,13.154,0,0,1-231.6-21.5a12.894,12.894,0,0,1,.989-5.045A12.667,12.667,0,0,1-227.9-30.6a12.023,12.023,0,0,1,4.068-2.661A13.77,13.77,0,0,1-218.7-34.2a12.116,12.116,0,0,1,4.953,1.043,12.935,12.935,0,0,1,4.056,2.809,12.986,12.986,0,0,1,2.7,4.211A13.905,13.905,0,0,1-206-20.9a12.034,12.034,0,0,1-.991,4.8,11.866,11.866,0,0,1-2.766,3.966,13.753,13.753,0,0,1-4.1,2.647A12.64,12.64,0,0,1-218.8-8.5Zm.1-24.7a12.777,12.777,0,0,0-4.764.864A11.03,11.03,0,0,0-227.2-29.9a11.673,11.673,0,0,0-2.493,3.741A11.9,11.9,0,0,0-230.6-21.5a12.161,12.161,0,0,0,.911,4.755,12.275,12.275,0,0,0,2.5,3.8,11.284,11.284,0,0,0,3.736,2.538A11.9,11.9,0,0,0-218.8-9.5a11.645,11.645,0,0,0,4.555-.911,12.755,12.755,0,0,0,3.8-2.453,10.871,10.871,0,0,0,2.534-3.634A11.04,11.04,0,0,0-207-20.9a12.91,12.91,0,0,0-.914-4.863,11.99,11.99,0,0,0-2.5-3.889,11.94,11.94,0,0,0-3.744-2.591A11.123,11.123,0,0,0-218.7-33.2Zm111-15.4a6.214,6.214,0,0,1-4.609-1.951A6.463,6.463,0,0,1-114.2-55.2a6.378,6.378,0,0,1,1.946-4.654A6.378,6.378,0,0,1-107.6-61.8a6.414,6.414,0,0,1,4.7,1.9,6.415,6.415,0,0,1,1.9,4.7,6.3,6.3,0,0,1-2,4.658A6.545,6.545,0,0,1-107.7-48.6Zm.1-12.2a5.341,5.341,0,0,0-3.946,1.654A5.341,5.341,0,0,0-113.2-55.2a5.424,5.424,0,0,0,1.608,3.951A5.181,5.181,0,0,0-107.7-49.6a5.505,5.505,0,0,0,4-1.658A5.265,5.265,0,0,0-102-55.2a5.378,5.378,0,0,0-1.6-4A5.378,5.378,0,0,0-107.6-60.8ZM-254.3-48.6a6.214,6.214,0,0,1-4.609-1.951A6.463,6.463,0,0,1-260.8-55.2a6.378,6.378,0,0,1,1.946-4.654A6.378,6.378,0,0,1-254.2-61.8a6.414,6.414,0,0,1,4.7,1.9,6.414,6.414,0,0,1,1.9,4.7,6.3,6.3,0,0,1-2,4.658A6.545,6.545,0,0,1-254.3-48.6Zm.1-12.2a5.341,5.341,0,0,0-3.947,1.654A5.341,5.341,0,0,0-259.8-55.2a5.424,5.424,0,0,0,1.609,3.951A5.181,5.181,0,0,0-254.3-49.6a5.505,5.505,0,0,0,4-1.658,5.265,5.265,0,0,0,1.7-3.942,5.378,5.378,0,0,0-1.6-4A5.378,5.378,0,0,0-254.2-60.8Z" transform="translate(280.5 67.2)" fill="#fca000"/>
</svg>
