<svg xmlns="http://www.w3.org/2000/svg" width="609.1" height="68.6" viewBox="0 0 609.1 68.6">
  <path id="vacuum_cleaners" data-name="vacuum cleaners" d="M-270.5-67.2h9.9a.5.5,0,0,1,.5.5V0a.5.5,0,0,1-.5.5h-9.9A.5.5,0,0,1-271,0V-66.7A.5.5,0,0,1-270.5-67.2Zm9.4,1H-270V-.5h8.9ZM-17.3-44.1a30.541,30.541,0,0,1,5.389.458,46.931,46.931,0,0,1,5.965,1.566A.5.5,0,0,1-5.6-41.6v9.8a.5.5,0,0,1-.254.435.5.5,0,0,1-.5-.006,21.612,21.612,0,0,0-5.18-2.248A19.225,19.225,0,0,0-16.8-34.4a7.842,7.842,0,0,0-4.467,1.112A3.292,3.292,0,0,0-22.8-30.4a2.483,2.483,0,0,0,1.79,2.338c.328.131.625.247.885.344s.591.213.983.344.952.3,1.673.492,1.78.5,3.109.9A27.342,27.342,0,0,1-9.776-24.3a11.217,11.217,0,0,1,2.924,2.038,11.746,11.746,0,0,1,2.763,4.015A12.892,12.892,0,0,1-3.1-13.2,14.4,14.4,0,0,1-4.294-7.244a13.9,13.9,0,0,1-3.37,4.615,14.79,14.79,0,0,1-5.225,3A20.9,20.9,0,0,1-19.6,1.4,32.194,32.194,0,0,1-25.9.79a43.792,43.792,0,0,1-6.576-1.922A.5.5,0,0,1-32.8-1.6v-10a.5.5,0,0,1,.233-.423.5.5,0,0,1,.481-.029C-27.11-9.695-22.842-8.5-19.4-8.5a7.62,7.62,0,0,0,4.364-1.06A3.139,3.139,0,0,0-13.6-12.3a4.27,4.27,0,0,0-.221-1.432,1.893,1.893,0,0,0-.844-.944,13.368,13.368,0,0,0-2.118-1.009,33.47,33.47,0,0,0-3.643-1.132h-.005c-4.466-1.218-7.755-2.877-9.775-4.932A11.31,11.31,0,0,1-33.3-30a13.559,13.559,0,0,1,1.2-5.709,13.3,13.3,0,0,1,3.324-4.467,15.281,15.281,0,0,1,5.064-2.9A19.344,19.344,0,0,1-17.3-44.1Zm10.7,2.865a44.809,44.809,0,0,0-5.489-1.423A29.544,29.544,0,0,0-17.3-43.1a18.351,18.351,0,0,0-6.084.972,14.289,14.289,0,0,0-4.736,2.7A12.306,12.306,0,0,0-31.2-35.291,12.567,12.567,0,0,0-32.3-30a12.133,12.133,0,0,0,.706,4.25,9.33,9.33,0,0,0,2.1,3.3c1.894,1.926,5.03,3.5,9.32,4.667h0a34.453,34.453,0,0,1,3.757,1.168,14.323,14.323,0,0,1,2.282,1.091,2.883,2.883,0,0,1,1.256,1.456A5.259,5.259,0,0,1-12.6-12.3a4.129,4.129,0,0,1-1.864,3.56A8.567,8.567,0,0,1-19.4-7.5c-3.423,0-7.592-1.115-12.4-3.316v8.867A42.208,42.208,0,0,0-25.7-.19,31.187,31.187,0,0,0-19.6.4a19.906,19.906,0,0,0,6.389-.974,13.8,13.8,0,0,0,4.875-2.8,12.906,12.906,0,0,0,3.13-4.285A13.408,13.408,0,0,0-4.1-13.2a11.9,11.9,0,0,0-.911-4.656,10.752,10.752,0,0,0-2.532-3.68l-.011-.011a10.219,10.219,0,0,0-2.67-1.856,26.372,26.372,0,0,0-4.414-1.616l-.006,0c-1.323-.4-2.361-.7-3.088-.9s-1.32-.372-1.727-.508-.745-.254-1.017-.356-.574-.219-.91-.354l-.011,0a3.434,3.434,0,0,1-2.4-3.26,4.282,4.282,0,0,1,1.967-3.712A8.8,8.8,0,0,1-16.8-35.4a20.223,20.223,0,0,1,5.537.819A22.609,22.609,0,0,1-6.6-32.663ZM-549.75-43.8a22.516,22.516,0,0,1,10.71,2.709,21.468,21.468,0,0,1,8.052,7.32l0,.006A24.206,24.206,0,0,1-529.3-30.6a18.559,18.559,0,0,1,1.083,3.443,29.107,29.107,0,0,1,.562,4.274c.1,1.57.151,3.448.151,5.582V0a.5.5,0,0,1-.5.5h-9.9a.5.5,0,0,1-.5-.5V-2.913a20.558,20.558,0,0,1-12,4.013,20.629,20.629,0,0,1-8.5-1.794,22.332,22.332,0,0,1-6.955-4.859,24.352,24.352,0,0,1-4.748-7.1A21.219,21.219,0,0,1-572.4-21.3a21.527,21.527,0,0,1,1.8-8.7,23.218,23.218,0,0,1,4.866-7.153,23.116,23.116,0,0,1,7.222-4.855A22.011,22.011,0,0,1-549.75-43.8Zm17.918,10.565a20.483,20.483,0,0,0-7.68-6.974A21.527,21.527,0,0,0-549.75-42.8a21.018,21.018,0,0,0-8.371,1.709,22.12,22.12,0,0,0-6.911,4.645,22.22,22.22,0,0,0-4.656,6.847,20.534,20.534,0,0,0-1.712,8.3,20.224,20.224,0,0,0,1.707,8.247,23.353,23.353,0,0,0,4.552,6.805A21.339,21.339,0,0,0-558.5-1.606,19.637,19.637,0,0,0-550.4.1a19.879,19.879,0,0,0,12.2-4.4.5.5,0,0,1,.525-.051.5.5,0,0,1,.278.448V-.5h8.9V-17.3c0-2.113-.05-3.969-.149-5.518a28.119,28.119,0,0,0-.541-4.126,17.558,17.558,0,0,0-1.023-3.257,23.2,23.2,0,0,0-1.618-3.034ZM-376.97-43.8a15.937,15.937,0,0,1,10.7,3.912c2.662-2.6,6.273-3.912,10.743-3.912a16.631,16.631,0,0,1,7.59,1.754,14.87,14.87,0,0,1,5.649,4.965l.008.012a16.1,16.1,0,0,1,2.067,4.747A29.044,29.044,0,0,1-339.6-25.6V0a.5.5,0,0,1-.5.5H-350a.5.5,0,0,1-.5-.5V-25.9c0-4.912-1.62-7.3-4.952-7.3a4.554,4.554,0,0,0-3.913,1.7,8.97,8.97,0,0,0-1.336,5.4V0a.5.5,0,0,1-.5.5h-9.9a.5.5,0,0,1-.5-.5V-25.9c0-2.61-.433-4.511-1.287-5.65a4.476,4.476,0,0,0-3.863-1.65,4.391,4.391,0,0,0-3.764,1.628A8.562,8.562,0,0,0-381.8-26.4V0a.5.5,0,0,1-.5.5h-9.9a.5.5,0,0,1-.5-.5V-25.4c0-1.471.034-2.743.1-3.782a18.318,18.318,0,0,1,.413-2.931,14.467,14.467,0,0,1,.779-2.435,15.649,15.649,0,0,1,1.19-2.222,14.593,14.593,0,0,1,5.546-5.172A16.108,16.108,0,0,1-376.97-43.8Zm10.72,5.1a.5.5,0,0,1-.336-.13,15.148,15.148,0,0,0-4.777-2.978,15.638,15.638,0,0,0-5.607-.992,15.12,15.12,0,0,0-7.229,1.741,13.611,13.611,0,0,0-5.173,4.825,14.667,14.667,0,0,0-1.117,2.082,13.457,13.457,0,0,0-.724,2.265,17.311,17.311,0,0,0-.389,2.77c-.066,1.018-.1,2.269-.1,3.718V-.5h8.9V-26.4a9.491,9.491,0,0,1,1.489-5.778,5.393,5.393,0,0,1,4.56-2.022,5.476,5.476,0,0,1,4.663,2.05c1,1.335,1.487,3.379,1.487,6.25V-.5h8.9V-26.1a9.9,9.9,0,0,1,1.538-6,5.558,5.558,0,0,1,4.71-2.1,5.151,5.151,0,0,1,4.5,2.164A10.755,10.755,0,0,1-349.5-25.9V-.5h8.9V-25.6a28.111,28.111,0,0,0-.586-6.479,15.106,15.106,0,0,0-1.936-4.445,13.88,13.88,0,0,0-5.27-4.63A15.64,15.64,0,0,0-355.53-42.8a16.528,16.528,0,0,0-5.908.992,12.035,12.035,0,0,0-4.451,2.953A.5.5,0,0,1-366.25-38.7Zm135.45-5.1a22.061,22.061,0,0,1,8.9,1.792,23.189,23.189,0,0,1,7.359,5.16l.008.009a22.6,22.6,0,0,1,3.937,5.88,14.64,14.64,0,0,1,1.5,6.059,7.728,7.728,0,0,1-2.991,6.393,7.4,7.4,0,0,1-3.111,1.5,29.747,29.747,0,0,1-5.2.31h-21.063a11.831,11.831,0,0,0,4.053,5.092A11.686,11.686,0,0,0-230.5-9.5a11.67,11.67,0,0,0,5.18-1.149,12.683,12.683,0,0,0,4.232-3.466.5.5,0,0,1,.388-.185h10.4a.5.5,0,0,1,.41.213.5.5,0,0,1,.06.458,23.269,23.269,0,0,1-3.271,6.08,20.66,20.66,0,0,1-4.816,4.611A23.749,23.749,0,0,1-223.944.025,21.632,21.632,0,0,1-230.7,1.1a21.217,21.217,0,0,1-8.653-1.793,23.4,23.4,0,0,1-7.1-4.854,23.221,23.221,0,0,1-4.855-7.153,21.569,21.569,0,0,1-1.792-8.7,22.1,22.1,0,0,1,1.74-8.7,22.517,22.517,0,0,1,4.807-7.158,22.676,22.676,0,0,1,7.106-4.806A21.741,21.741,0,0,1-230.8-43.8Zm15.536,7.643a22.193,22.193,0,0,0-7.037-4.935,21.068,21.068,0,0,0-8.5-1.708,20.744,20.744,0,0,0-8.252,1.659,21.678,21.678,0,0,0-6.794,4.594A21.524,21.524,0,0,0-250.44-29.7a21.107,21.107,0,0,0-1.66,8.3,20.575,20.575,0,0,0,1.708,8.3,22.227,22.227,0,0,0,4.645,6.847,22.4,22.4,0,0,0,6.8,4.646A20.223,20.223,0,0,0-230.7.1a20.634,20.634,0,0,0,6.444-1.025,22.752,22.752,0,0,0,5.773-2.837A19.661,19.661,0,0,0-213.9-8.151a22.065,22.065,0,0,0,2.874-5.149h-9.439A12.608,12.608,0,0,1-230.5-8.5a12.666,12.666,0,0,1-7.489-2.292,12.956,12.956,0,0,1-4.68-6.235.5.5,0,0,1,.059-.459.5.5,0,0,1,.41-.214h21.8a29.4,29.4,0,0,0,5-.29,6.41,6.41,0,0,0,2.689-1.3A6.689,6.689,0,0,0-210.1-24.9a13.659,13.659,0,0,0-1.4-5.641A21.593,21.593,0,0,0-215.264-36.157ZM-182.35-43.8a22.516,22.516,0,0,1,10.71,2.709,21.468,21.468,0,0,1,8.052,7.32l0,.006A24.206,24.206,0,0,1-161.9-30.6a18.553,18.553,0,0,1,1.083,3.443,29.1,29.1,0,0,1,.562,4.274c.1,1.569.151,3.447.151,5.582V0a.5.5,0,0,1-.5.5h-9.9A.5.5,0,0,1-171,0V-2.913A20.559,20.559,0,0,1-183,1.1a20.63,20.63,0,0,1-8.5-1.794,22.331,22.331,0,0,1-6.955-4.859,24.349,24.349,0,0,1-4.748-7.1A21.217,21.217,0,0,1-205-21.3a21.526,21.526,0,0,1,1.8-8.7,23.215,23.215,0,0,1,4.866-7.153,23.116,23.116,0,0,1,7.222-4.855A22.012,22.012,0,0,1-182.35-43.8Zm17.918,10.565a20.482,20.482,0,0,0-7.68-6.974A21.527,21.527,0,0,0-182.35-42.8a21.018,21.018,0,0,0-8.371,1.709,22.119,22.119,0,0,0-6.911,4.645,22.22,22.22,0,0,0-4.656,6.847A20.533,20.533,0,0,0-204-21.3a20.223,20.223,0,0,0,1.707,8.247,23.353,23.353,0,0,0,4.552,6.805A21.338,21.338,0,0,0-191.1-1.606,19.638,19.638,0,0,0-183,.1a19.879,19.879,0,0,0,12.2-4.4.5.5,0,0,1,.525-.051A.5.5,0,0,1-170-3.9V-.5h8.9V-17.3c0-2.114-.05-3.971-.149-5.518a28.117,28.117,0,0,0-.541-4.126,17.552,17.552,0,0,0-1.023-3.257,23.2,23.2,0,0,0-1.618-3.034ZM-133.35-43.8a19.171,19.171,0,0,1,8.029,1.7,18.183,18.183,0,0,1,6.393,4.883,15.848,15.848,0,0,1,3.256,5.781A29.241,29.241,0,0,1-114.8-23.5V0a.5.5,0,0,1-.5.5h-9.9a.5.5,0,0,1-.5-.5V-20.7a36.178,36.178,0,0,0-.341-5.666,10.841,10.841,0,0,0-1.186-3.49,6.292,6.292,0,0,0-2.491-2.408,7.167,7.167,0,0,0-3.533-.936,7.775,7.775,0,0,0-3.6.894,6.594,6.594,0,0,0-2.635,2.366,9.676,9.676,0,0,0-1.179,3.182A31.491,31.491,0,0,0-141-21.4V0a.5.5,0,0,1-.5.5h-9.9a.5.5,0,0,1-.5-.5V-24.2a23.18,23.18,0,0,1,.977-7.156,17.87,17.87,0,0,1,3.145-5.659,17.212,17.212,0,0,1,6.346-5.039A19.037,19.037,0,0,1-133.35-43.8ZM-115.8-.5v-23a28.293,28.293,0,0,0-.832-7.659,14.867,14.867,0,0,0-3.059-5.416,17.2,17.2,0,0,0-6.046-4.62,18.178,18.178,0,0,0-7.613-1.6,18.045,18.045,0,0,0-7.661,1.653A16.222,16.222,0,0,0-147-36.392l0,.006a16.874,16.874,0,0,0-2.972,5.341A22.2,22.2,0,0,0-150.9-24.2V-.5h8.9V-21.4a32.388,32.388,0,0,1,.356-5.542,10.669,10.669,0,0,1,1.305-3.514l0-.007a7.578,7.578,0,0,1,3.027-2.73A8.766,8.766,0,0,1-133.25-34.2a8.156,8.156,0,0,1,4.021,1.064,7.276,7.276,0,0,1,2.876,2.792,11.838,11.838,0,0,1,1.3,3.81A37.118,37.118,0,0,1-124.7-20.7V-.5Zm29.9-43.3A22.061,22.061,0,0,1-77-42.008a23.191,23.191,0,0,1,7.359,5.16l.008.009a22.594,22.594,0,0,1,3.937,5.88A14.64,14.64,0,0,1-64.2-24.9a7.728,7.728,0,0,1-2.991,6.393,7.4,7.4,0,0,1-3.111,1.5,29.747,29.747,0,0,1-5.2.31H-96.563a11.831,11.831,0,0,0,4.053,5.092A11.686,11.686,0,0,0-85.6-9.5a11.67,11.67,0,0,0,5.18-1.149,12.684,12.684,0,0,0,4.232-3.466A.5.5,0,0,1-75.8-14.3h10.4a.5.5,0,0,1,.409.213.5.5,0,0,1,.06.458A23.268,23.268,0,0,1-68.2-7.549a20.656,20.656,0,0,1-4.816,4.611A23.748,23.748,0,0,1-79.044.025,21.633,21.633,0,0,1-85.8,1.1,21.217,21.217,0,0,1-94.453-.693a23.394,23.394,0,0,1-7.1-4.854,23.219,23.219,0,0,1-4.855-7.153,21.568,21.568,0,0,1-1.792-8.7,22.1,22.1,0,0,1,1.74-8.7,22.516,22.516,0,0,1,4.807-7.158,22.673,22.673,0,0,1,7.106-4.806A21.742,21.742,0,0,1-85.9-43.8Zm15.536,7.643A22.193,22.193,0,0,0-77.4-41.092,21.069,21.069,0,0,0-85.9-42.8a20.745,20.745,0,0,0-8.252,1.659,21.678,21.678,0,0,0-6.794,4.594A21.524,21.524,0,0,0-105.54-29.7a21.106,21.106,0,0,0-1.66,8.3,20.574,20.574,0,0,0,1.708,8.3,22.226,22.226,0,0,0,4.645,6.847,22.4,22.4,0,0,0,6.8,4.646A20.223,20.223,0,0,0-85.8.1,20.634,20.634,0,0,0-79.356-.925a22.751,22.751,0,0,0,5.773-2.837A19.66,19.66,0,0,0-69-8.151,22.063,22.063,0,0,0-66.125-13.3h-9.439A12.609,12.609,0,0,1-85.6-8.5a12.666,12.666,0,0,1-7.489-2.292,12.956,12.956,0,0,1-4.68-6.235.5.5,0,0,1,.059-.459.5.5,0,0,1,.41-.214h21.8a29.4,29.4,0,0,0,5-.29,6.411,6.411,0,0,0,2.689-1.3A6.689,6.689,0,0,0-65.2-24.9a13.661,13.661,0,0,0-1.4-5.641A21.592,21.592,0,0,0-70.364-36.157ZM-40.2-43.6h1a12.011,12.011,0,0,1,1.462.1.5.5,0,0,1,.438.5v9.5a.5.5,0,0,1-.464.5,18.775,18.775,0,0,0-4.478.776,5.7,5.7,0,0,0-2.625,1.7,7.083,7.083,0,0,0-1.4,3.038A23.5,23.5,0,0,0-46.7-22.5V0a.5.5,0,0,1-.5.5h-9.9a.5.5,0,0,1-.5-.5V-25.1a25.489,25.489,0,0,1,1.124-7.906,15.21,15.21,0,0,1,3.409-5.84,14.426,14.426,0,0,1,5.513-3.574A21.325,21.325,0,0,1-40.2-43.6Zm1.9,1.048c-.333-.032-.634-.048-.9-.048h-1c-5.24,0-9.326,1.5-12.144,4.445S-56.6-30.806-56.6-25.1V-.5h8.9v-22a24.464,24.464,0,0,1,.462-5.21,8.063,8.063,0,0,1,1.6-3.462,6.682,6.682,0,0,1,3.075-2,18.848,18.848,0,0,1,4.258-.788ZM-611.7-43.2h10a.5.5,0,0,1,.481.365l7.539,26.857,8.2-26.868A.5.5,0,0,1-585-43.2h9.5a.5.5,0,0,1,.4.2.5.5,0,0,1,.074.446l-11.6,36.9A13.131,13.131,0,0,1-589.24-.4a5.538,5.538,0,0,1-4.16,1.6,5.3,5.3,0,0,1-3.9-1.4,12.312,12.312,0,0,1-2.471-4.745l-12.4-37.6a.5.5,0,0,1,.07-.45A.5.5,0,0,1-611.7-43.2Zm9.621,1h-8.93l12.183,36.943A11.612,11.612,0,0,0-596.6-.9,4.348,4.348,0,0,0-593.4.2a4.52,4.52,0,0,0,3.44-1.3,12.431,12.431,0,0,0,2.382-4.849l11.4-36.254h-8.449l-8.592,28.146a.5.5,0,0,1-.484.354.5.5,0,0,1-.476-.365Zm106.479-1h4a.5.5,0,0,1,.5.5v9.472a.5.5,0,0,1-.5.5c-1.652,0-3.078.016-4.236.049s-2.184.066-3.045.1a20.75,20.75,0,0,0-2.245.195,10.946,10.946,0,0,0-1.817.429l-.015,0a10.95,10.95,0,0,0-5.743,3.96,10.9,10.9,0,0,0-2.2,6.728,10.862,10.862,0,0,0,1.627,5.721,9.675,9.675,0,0,0,4.377,3.891l.019.009a18.913,18.913,0,0,0,1.9.826,9.251,9.251,0,0,0,1.945.472c.714.1,1.571.162,2.549.195s2.23.05,3.683.05h3.2a.5.5,0,0,1,.5.5V0a.5.5,0,0,1-.5.5h-4.8c-2.2,0-4.119-.068-5.692-.2a28.5,28.5,0,0,1-4.276-.662,14.4,14.4,0,0,1-3.522-1.347A28.07,28.07,0,0,1-513.112-3.8l-.007-.006a22.552,22.552,0,0,1-6.455-7.67A21.14,21.14,0,0,1-521.8-21.1a22.255,22.255,0,0,1,3.565-12.271,20.45,20.45,0,0,1,9.535-7.987,18.628,18.628,0,0,1,2.56-.972,19.105,19.105,0,0,1,2.722-.565,30.687,30.687,0,0,1,3.3-.254C-498.914-43.183-497.4-43.2-495.6-43.2Zm3.5,1h-3.5c-1.786,0-3.3.017-4.486.05a29.719,29.719,0,0,0-3.2.246,18.117,18.117,0,0,0-2.578.535,17.627,17.627,0,0,0-2.43.924l-.019.008a19.467,19.467,0,0,0-9.085,7.609A21.271,21.271,0,0,0-520.8-21.1a20.149,20.149,0,0,0,2.118,9.175A21.561,21.561,0,0,0-512.51-4.6a27.081,27.081,0,0,0,3.1,2.009,13.4,13.4,0,0,0,3.278,1.253,27.5,27.5,0,0,0,4.124.638c1.546.132,3.432.2,5.608.2h4.3V-9.1h-2.7c-1.465,0-2.715-.017-3.717-.05s-1.9-.1-2.651-.2a10.253,10.253,0,0,1-2.155-.525,19.9,19.9,0,0,1-1.991-.865,10.657,10.657,0,0,1-4.814-4.28,11.848,11.848,0,0,1-1.773-6.241,11.873,11.873,0,0,1,2.4-7.331,11.928,11.928,0,0,1,6.248-4.313,11.952,11.952,0,0,1,1.977-.466,21.728,21.728,0,0,1,2.355-.205c.865-.033,1.892-.067,3.055-.1,1.049-.03,2.313-.046,3.764-.049Zm7.5-1h9.9a.5.5,0,0,1,.5.5V-22a36.182,36.182,0,0,0,.341,5.666,10.843,10.843,0,0,0,1.186,3.49,6.292,6.292,0,0,0,2.491,2.408,7.167,7.167,0,0,0,3.533.936,7.775,7.775,0,0,0,3.6-.894,6.593,6.593,0,0,0,2.637-2.369,9.678,9.678,0,0,0,1.177-3.179A31.488,31.488,0,0,0-458.9-21.3V-42.7a.5.5,0,0,1,.5-.5h9.9a.5.5,0,0,1,.5.5v24.2a23.182,23.182,0,0,1-.977,7.156,17.867,17.867,0,0,1-3.145,5.659,17.212,17.212,0,0,1-6.346,5.039A19.037,19.037,0,0,1-466.55,1.1a19.171,19.171,0,0,1-8.029-1.7,18.183,18.183,0,0,1-6.393-4.883,15.847,15.847,0,0,1-3.256-5.781A29.242,29.242,0,0,1-485.1-19.2V-42.7A.5.5,0,0,1-484.6-43.2Zm9.4,1h-8.9v23a28.3,28.3,0,0,0,.832,7.659,14.867,14.867,0,0,0,3.059,5.416,17.194,17.194,0,0,0,6.046,4.62A18.178,18.178,0,0,0-466.55.1a18.045,18.045,0,0,0,7.66-1.653A16.222,16.222,0,0,0-452.9-6.308l.005-.006a16.869,16.869,0,0,0,2.972-5.341A22.2,22.2,0,0,0-449-18.5V-42.2h-8.9v20.9a32.385,32.385,0,0,1-.356,5.542,10.67,10.67,0,0,1-1.3,3.514l0,.008a7.58,7.58,0,0,1-3.027,2.73A8.766,8.766,0,0,1-466.65-8.5a8.156,8.156,0,0,1-4.021-1.064,7.276,7.276,0,0,1-2.876-2.792,11.839,11.839,0,0,1-1.3-3.81A37.118,37.118,0,0,1-475.2-22Zm36.8-1h9.9a.5.5,0,0,1,.5.5V-22a36.178,36.178,0,0,0,.341,5.666,10.841,10.841,0,0,0,1.186,3.49,6.291,6.291,0,0,0,2.491,2.408,7.167,7.167,0,0,0,3.533.936,7.775,7.775,0,0,0,3.6-.894,6.593,6.593,0,0,0,2.635-2.366,9.676,9.676,0,0,0,1.179-3.182A31.5,31.5,0,0,0-412.7-21.3V-42.7a.5.5,0,0,1,.5-.5h9.9a.5.5,0,0,1,.5.5v24.2a23.185,23.185,0,0,1-.977,7.156,17.871,17.871,0,0,1-3.145,5.659,17.212,17.212,0,0,1-6.346,5.039A19.037,19.037,0,0,1-420.35,1.1a19.171,19.171,0,0,1-8.029-1.7,18.183,18.183,0,0,1-6.393-4.883,15.847,15.847,0,0,1-3.256-5.781A29.244,29.244,0,0,1-438.9-19.2V-42.7A.5.5,0,0,1-438.4-43.2Zm9.4,1h-8.9v23a28.3,28.3,0,0,0,.832,7.659,14.866,14.866,0,0,0,3.059,5.416,17.194,17.194,0,0,0,6.046,4.62A18.178,18.178,0,0,0-420.35.1a18.045,18.045,0,0,0,7.661-1.653A16.222,16.222,0,0,0-406.7-6.308l.005-.006a16.875,16.875,0,0,0,2.972-5.341A22.2,22.2,0,0,0-402.8-18.5V-42.2h-8.9v20.9a32.388,32.388,0,0,1-.356,5.542,10.669,10.669,0,0,1-1.305,3.514l0,.007a7.579,7.579,0,0,1-3.027,2.73A8.766,8.766,0,0,1-420.45-8.5a8.156,8.156,0,0,1-4.021-1.064,7.276,7.276,0,0,1-2.876-2.792,11.839,11.839,0,0,1-1.3-3.81A37.123,37.123,0,0,1-429-22Zm147-1h4a.5.5,0,0,1,.5.5v9.472a.5.5,0,0,1-.5.5c-1.652,0-3.078.016-4.236.049s-2.184.066-3.045.1a20.754,20.754,0,0,0-2.245.195,10.942,10.942,0,0,0-1.817.429l-.015,0a10.95,10.95,0,0,0-5.743,3.96,10.9,10.9,0,0,0-2.2,6.728,10.862,10.862,0,0,0,1.627,5.721,9.675,9.675,0,0,0,4.377,3.891l.019.009a18.915,18.915,0,0,0,1.9.826,9.251,9.251,0,0,0,1.945.472c.714.1,1.571.162,2.549.195s2.23.05,3.683.05h3.2a.5.5,0,0,1,.5.5V0a.5.5,0,0,1-.5.5h-4.8c-2.2,0-4.119-.068-5.692-.2a28.5,28.5,0,0,1-4.276-.662,14.4,14.4,0,0,1-3.522-1.347A28.072,28.072,0,0,1-299.512-3.8l-.007-.006a22.553,22.553,0,0,1-6.455-7.67A21.139,21.139,0,0,1-308.2-21.1a22.255,22.255,0,0,1,3.565-12.271,20.45,20.45,0,0,1,9.535-7.987,18.621,18.621,0,0,1,2.56-.972,19.107,19.107,0,0,1,2.722-.565,30.687,30.687,0,0,1,3.3-.254C-285.314-43.183-283.8-43.2-282-43.2Zm3.5,1H-282c-1.786,0-3.3.017-4.486.05a29.719,29.719,0,0,0-3.2.246,18.117,18.117,0,0,0-2.578.535,17.617,17.617,0,0,0-2.43.924l-.019.008a19.467,19.467,0,0,0-9.085,7.609A21.271,21.271,0,0,0-307.2-21.1a20.149,20.149,0,0,0,2.118,9.175A21.562,21.562,0,0,0-298.91-4.6a27.081,27.081,0,0,0,3.1,2.009,13.4,13.4,0,0,0,3.278,1.253,27.5,27.5,0,0,0,4.124.638c1.546.132,3.432.2,5.608.2h4.3V-9.1h-2.7c-1.465,0-2.715-.017-3.717-.05s-1.9-.1-2.651-.2a10.252,10.252,0,0,1-2.155-.525,19.9,19.9,0,0,1-1.991-.865,10.658,10.658,0,0,1-4.814-4.28,11.849,11.849,0,0,1-1.773-6.241,11.873,11.873,0,0,1,2.4-7.331,11.928,11.928,0,0,1,6.248-4.313,11.957,11.957,0,0,1,1.977-.466,21.733,21.733,0,0,1,2.355-.205c.864-.033,1.892-.067,3.055-.1,1.049-.03,2.313-.046,3.764-.049Zm-271,8a12.53,12.53,0,0,1,5,.991,12.059,12.059,0,0,1,4.015,2.816,13.014,13.014,0,0,1,2.652,4.211A14.163,14.163,0,0,1-536.9-21a12.173,12.173,0,0,1-.993,4.952,12.988,12.988,0,0,1-2.7,3.951,12.024,12.024,0,0,1-4.068,2.661A13.227,13.227,0,0,1-549.6-8.5a13.265,13.265,0,0,1-5.091-.988A12.532,12.532,0,0,1-558.8-12.2a12.668,12.668,0,0,1-2.707-4.059A12.893,12.893,0,0,1-562.5-21.3a13.264,13.264,0,0,1,.988-5.091,12.158,12.158,0,0,1,2.764-4.118,13.12,13.12,0,0,1,4.157-2.7A13.265,13.265,0,0,1-549.5-34.2Zm-.1,24.7a12.231,12.231,0,0,0,4.564-.864A11.029,11.029,0,0,0-541.3-12.8a12,12,0,0,0,2.5-3.649A11.182,11.182,0,0,0-537.9-21a13.168,13.168,0,0,0-.866-4.818,12.021,12.021,0,0,0-2.448-3.889,11.066,11.066,0,0,0-3.684-2.584,11.539,11.539,0,0,0-4.6-.909,12.27,12.27,0,0,0-4.709.912,12.125,12.125,0,0,0-3.843,2.5,11.163,11.163,0,0,0-2.536,3.782A12.268,12.268,0,0,0-561.5-21.3a11.9,11.9,0,0,0,.911,4.656A11.674,11.674,0,0,0-558.1-12.9a11.539,11.539,0,0,0,3.787,2.491A12.27,12.27,0,0,0-549.6-9.5Zm319.1-24.7a12.537,12.537,0,0,1,7.285,2.239,11.652,11.652,0,0,1,4.488,5.9.5.5,0,0,1-.066.453.5.5,0,0,1-.407.209H-242a.5.5,0,0,1-.415-.221.5.5,0,0,1-.049-.467,12.825,12.825,0,0,1,4.734-5.977A12.715,12.715,0,0,1-230.5-34.2Zm10.577,7.8a10.676,10.676,0,0,0-3.861-4.739A11.556,11.556,0,0,0-230.5-33.2a11.732,11.732,0,0,0-6.671,1.965,11.659,11.659,0,0,0-4.066,4.835Zm37.823-7.8a12.53,12.53,0,0,1,5,.991,12.059,12.059,0,0,1,4.016,2.816,13.018,13.018,0,0,1,2.652,4.211A14.163,14.163,0,0,1-169.5-21a12.174,12.174,0,0,1-.993,4.952,12.988,12.988,0,0,1-2.7,3.951,12.023,12.023,0,0,1-4.068,2.661A13.227,13.227,0,0,1-182.2-8.5a13.264,13.264,0,0,1-5.091-.988A12.533,12.533,0,0,1-191.4-12.2a12.666,12.666,0,0,1-2.707-4.059A12.891,12.891,0,0,1-195.1-21.3a13.264,13.264,0,0,1,.988-5.091,12.158,12.158,0,0,1,2.764-4.118,13.119,13.119,0,0,1,4.157-2.7A13.264,13.264,0,0,1-182.1-34.2Zm-.1,24.7a12.231,12.231,0,0,0,4.564-.864A11.029,11.029,0,0,0-173.9-12.8a11.993,11.993,0,0,0,2.5-3.649A11.183,11.183,0,0,0-170.5-21a13.168,13.168,0,0,0-.866-4.818,12.023,12.023,0,0,0-2.448-3.889,11.065,11.065,0,0,0-3.684-2.584,11.538,11.538,0,0,0-4.6-.909,12.27,12.27,0,0,0-4.709.912,12.124,12.124,0,0,0-3.843,2.5,11.163,11.163,0,0,0-2.536,3.782A12.267,12.267,0,0,0-194.1-21.3a11.9,11.9,0,0,0,.911,4.656A11.673,11.673,0,0,0-190.7-12.9a11.539,11.539,0,0,0,3.787,2.491A12.27,12.27,0,0,0-182.2-9.5Zm96.6-24.7a12.537,12.537,0,0,1,7.285,2.239,11.651,11.651,0,0,1,4.488,5.9.5.5,0,0,1-.066.453.5.5,0,0,1-.407.209H-97.1a.5.5,0,0,1-.415-.221.5.5,0,0,1-.049-.467,12.825,12.825,0,0,1,4.734-5.977A12.715,12.715,0,0,1-85.6-34.2Zm10.577,7.8a10.676,10.676,0,0,0-3.862-4.739A11.556,11.556,0,0,0-85.6-33.2a11.732,11.732,0,0,0-6.671,1.965A11.658,11.658,0,0,0-96.337-26.4Z" transform="translate(612.2 67.2)" fill="#40b109"/>
</svg>
